<svg width="16" height="16" viewBox="0 0 16 16" fill="none" xmlns="http://www.w3.org/2000/svg">
  <path fill-rule="evenodd" clip-rule="evenodd" d="M8 14C11.3137 14 14 11.3137 14 8C14 4.68629 11.3137 2 8 2C4.68629 2 2 4.68629 2 8C2 11.3137 4.68629 14 8 14ZM5.59619 7.83594V8.14795C5.59619 9.88379 6.42676 11.1055 7.97803 11.1055C9.61279 11.1055 10.395 9.75635 10.395 8.14795V7.83594C10.395 6.08691 9.56885 4.896 8.01318 4.896C6.4707 4.896 5.59619 6.1001 5.59619 7.83594ZM7.17383 8.14355V7.84033C7.17383 6.67578 7.49902 6.13965 7.99561 6.13965C8.49219 6.13965 8.82178 6.68457 8.82178 7.84033V8.14355C8.82178 9.30371 8.49219 9.86182 7.99561 9.86182C7.49902 9.86182 7.17383 9.30811 7.17383 8.14355Z" fill="currentColor"/>
</svg>
