<svg width="16" height="16" viewBox="0 0 16 16" fill="none" xmlns="http://www.w3.org/2000/svg">
  <path fill-rule="evenodd" clip-rule="evenodd" d="M8 14C11.3137 14 14 11.3137 14 8C14 4.68629 11.3137 2 8 2C4.68629 2 2 4.68629 2 8C2 11.3137 4.68629 14 8 14ZM7.70996 6.4209V10.2046C7.70996 10.8154 8.06592 11.0352 8.49219 11.0352C8.92285 11.0352 9.27002 10.8154 9.27002 10.2046V5.91113C9.27002 5.41895 8.98877 4.96631 8.34717 4.96631C8.03076 4.96631 7.68359 5.07617 7.33643 5.2915L6.65088 5.73535C6.42236 5.88037 6.23779 6.06934 6.23779 6.3418C6.23779 6.63623 6.43115 6.88232 6.76953 6.88232C6.92773 6.88232 7.05957 6.82959 7.30566 6.68018L7.69678 6.4209H7.70996Z" fill="currentColor" />
</svg>
