<svg width="16" height="16" viewBox="0 0 16 16" fill="none" xmlns="http://www.w3.org/2000/svg">
  <path fill-rule="evenodd" clip-rule="evenodd" d="M8 14C11.3137 14 14 11.3137 14 8C14 4.68629 11.3137 2 8 2C4.68629 2 2 4.68629 2 8C2 11.3137 4.68629 14 8 14ZM6.4751 9.36963C6.06201 9.76514 5.84229 10.0376 5.84229 10.354C5.84229 10.6836 6.0752 11 6.58496 11H9.604C10.0522 11 10.3203 10.7715 10.3203 10.3848C10.3203 10.0068 10.0522 9.76514 9.604 9.76514H7.89014V9.69922L9.07666 8.54346C9.63477 8.00732 10.0962 7.42725 10.0962 6.6582C10.0962 5.62549 9.26123 4.896 7.94727 4.896C6.49707 4.896 5.77637 5.78809 5.77637 6.45605C5.77637 6.86475 6.05322 7.10205 6.42236 7.10205C6.7124 7.10205 6.86182 6.95264 6.98486 6.79883C7.00304 6.77175 7.02106 6.74436 7.03912 6.7169C7.23506 6.41905 7.43621 6.11328 7.89893 6.11328C8.36035 6.11328 8.60645 6.4165 8.60645 6.78125C8.60645 7.20752 8.25049 7.58984 7.93848 7.89746L6.4751 9.36963Z" fill="currentColor"/>
</svg>
