<svg width="16" height="16" viewBox="0 0 16 16" fill="none" xmlns="http://www.w3.org/2000/svg">
  <path fill-rule="evenodd" clip-rule="evenodd" d="M8 14C11.3137 14 14 11.3137 14 8C14 4.68629 11.3137 2 8 2C4.68629 2 2 4.68629 2 8C2 11.3137 4.68629 14 8 14ZM6.34766 9.08838C5.94336 9.08838 5.68848 9.36523 5.68848 9.73438C5.68848 10.4727 6.69482 11.1055 7.93408 11.1055C9.21289 11.1055 10.3335 10.4551 10.3335 9.29053C10.3335 8.39844 9.68311 7.91064 9.08545 7.8667V7.7876C9.53809 7.73486 10.1709 7.31299 10.1709 6.51318C10.1709 5.52002 9.19531 4.896 7.93408 4.896C6.60254 4.896 5.74121 5.59473 5.74121 6.28467C5.74121 6.67578 6.03125 6.89551 6.40039 6.89551C6.66406 6.89551 6.81787 6.77686 6.9541 6.62744C6.96237 6.61792 6.97065 6.60837 6.97894 6.5988C7.20417 6.33884 7.44148 6.06494 7.90771 6.06494C8.37793 6.06494 8.68994 6.3374 8.68994 6.70215C8.68994 7.06689 8.37354 7.34814 7.91211 7.34814H7.4375C7.22656 7.34814 6.87939 7.50195 6.87939 7.91064C6.87939 8.31055 7.21777 8.49951 7.4375 8.49951H7.9209C8.50098 8.49951 8.82178 8.82031 8.82178 9.22461C8.82178 9.60693 8.52295 9.94092 7.9209 9.94092C7.40234 9.94092 7.13867 9.69922 6.94092 9.42676C6.7959 9.25098 6.65088 9.08838 6.34766 9.08838Z" fill="currentColor"/>
</svg>
