<svg width="16" height="16" viewBox="0 0 16 16" fill="none" xmlns="http://www.w3.org/2000/svg">
  <path fill-rule="evenodd" clip-rule="evenodd" d="M8 14C11.3137 14 14 11.3137 14 8C14 4.68629 11.3137 2 8 2C4.68629 2 2 4.68629 2 8C2 11.3137 4.68629 14 8 14ZM8.34717 8.79395H6.80908V8.77197C7.23096 7.87549 7.75391 7.01416 8.3208 6.14404H8.34717V8.79395ZM8.34717 10.0112V10.2529C8.34717 10.7539 8.646 11.0352 9.07227 11.0352C9.49854 11.0352 9.81055 10.7539 9.81055 10.2529V10.0112H9.95117C10.3291 10.0112 10.5752 9.7959 10.5752 9.40918C10.5752 9.02246 10.3291 8.79395 9.95117 8.79395H9.81055V5.93311C9.81055 5.25195 9.26562 4.90918 8.5625 4.90918C7.90771 4.90918 7.55615 5.20361 7.13428 5.81445C6.56299 6.64502 6.01807 7.57666 5.63135 8.37646C5.48193 8.69727 5.40723 8.93896 5.40723 9.19824C5.40723 9.67285 5.67529 10.0112 6.26855 10.0112H8.34717Z" fill="currentColor"/>
</svg>
