<svg width="111" height="90" viewBox="0 0 111 90" fill="none" xmlns="http://www.w3.org/2000/svg">
  <path fill-rule="evenodd" clip-rule="evenodd" d="M0.5 13.2058C0.5 6.06347 6.29003 0.273438 13.4324 0.273438H97.5676C104.71 0.273438 110.5 6.06347 110.5 13.2058V74.5831V76.2513C110.5 83.3937 104.71 89.1837 97.5676 89.1837H13.4324C6.29003 89.1837 0.5 83.3937 0.5 76.2513V13.2058ZM107.087 23.265V29.8617V74.1158V76.237C107.087 81.5938 102.745 85.9363 97.3877 85.9363H13.2525C7.89575 85.9363 3.55323 81.5938 3.55323 76.237V23.265H107.087Z" fill="#37394A"/>
  <path d="M64.983 35.8279C64.0462 34.1843 62.6857 32.8193 61.0419 31.8739C59.3981 30.9285 57.5306 30.4369 55.6321 30.4498C53.7154 30.451 51.8323 30.9504 50.1691 31.8985C48.52 32.8594 47.1469 34.2262 46.1815 35.8676L31.0486 62.0832C30.0981 63.7178 29.5976 65.5729 29.5977 67.4615C29.5977 69.3501 30.0982 71.2052 31.0487 72.8397C31.9992 74.4743 33.3661 75.8303 35.0113 76.771C36.6566 77.7117 38.522 78.2038 40.4194 78.1976H70.8647C72.7621 78.2038 74.6276 77.7117 76.2728 76.771C77.9181 75.8303 79.2849 74.4743 80.2354 72.8397C81.1859 71.2052 81.6865 69.3501 81.6865 67.4615C81.6865 65.5729 81.186 63.7178 80.2356 62.0832L64.983 35.8279ZM76.9458 70.9144C76.3432 71.9653 75.4731 72.8396 74.423 73.4493C73.373 74.059 72.1801 74.3825 70.9644 74.3873H40.3995C39.1804 74.3805 37.9844 74.0551 36.9314 73.4435C35.8785 72.8319 35.0054 71.9557 34.3997 70.9026C33.7939 69.8495 33.4768 68.6565 33.48 67.4431C33.4833 66.2296 33.8067 65.0383 34.4181 63.9884L49.6507 37.7331C50.259 36.6768 51.1313 35.7949 52.1828 35.173C53.2343 34.5779 54.4225 34.2635 55.6321 34.2601C56.8486 34.2609 58.0431 34.5827 59.0939 35.1928C60.1446 35.8029 61.0141 36.6794 61.6135 37.7331L76.8461 63.9884C77.4756 65.0363 77.813 66.2323 77.8235 67.4532C77.834 68.6741 77.5173 69.8757 76.9059 70.9342L76.9458 70.9144Z" fill="#37394A"/>
  <path d="M57.4667 41.3049C57.2349 41.0496 56.9519 40.8455 56.6359 40.7059C56.32 40.5662 55.9781 40.494 55.6324 40.494C55.2867 40.494 54.9448 40.5662 54.6288 40.7059C54.3129 40.8455 54.0299 41.0496 53.7981 41.3049C53.5524 41.5691 53.3679 41.8838 53.2576 42.2267C53.1474 42.5696 53.1141 42.9324 53.1601 43.2895L54.5757 57.5185C54.5757 57.7975 54.687 58.065 54.8852 58.2623C55.0833 58.4595 55.3521 58.5703 55.6324 58.5703C55.9126 58.5703 56.1814 58.4595 56.3796 58.2623C56.5778 58.065 56.6891 57.7975 56.6891 57.5185L58.1047 43.2895C58.1507 42.9324 58.1174 42.5696 58.0071 42.2267C57.8969 41.8838 57.7124 41.5691 57.4667 41.3049Z" fill="#37394A"/>
  <path d="M55.6323 68.1555C57.273 68.1555 58.603 66.8316 58.603 65.1985C58.603 63.5655 57.273 62.2416 55.6323 62.2416C53.9916 62.2416 52.6615 63.5655 52.6615 65.1985C52.6615 66.8316 53.9916 68.1555 55.6323 68.1555Z" fill="#37394A"/>
  <path fill-rule="evenodd" clip-rule="evenodd" d="M107.267 13.2064V20.0468H3.7331V13.2064C3.7331 7.84968 8.07562 3.50715 13.4324 3.50715H97.5676C102.924 3.50715 107.267 7.84967 107.267 13.2064ZM15.8572 16.4396C18.0892 16.4396 19.8986 14.6302 19.8986 12.3982C19.8986 10.1662 18.0892 8.3568 15.8572 8.3568C13.6252 8.3568 11.8158 10.1662 11.8158 12.3982C11.8158 14.6302 13.6252 16.4396 15.8572 16.4396ZM31.2144 12.3982C31.2144 14.6302 29.4051 16.4396 27.1731 16.4396C24.9411 16.4396 23.1317 14.6302 23.1317 12.3982C23.1317 10.1662 24.9411 8.3568 27.1731 8.3568C29.4051 8.3568 31.2144 10.1662 31.2144 12.3982Z" fill="#37394A"/>
  <path fill-rule="evenodd" clip-rule="evenodd" d="M107.267 13.2065V20.0468H3.73279V13.2065C3.73279 7.84973 8.07531 3.5072 13.4321 3.5072H97.5673C102.924 3.5072 107.267 7.84973 107.267 13.2065ZM15.8569 16.4396C18.0889 16.4396 19.8983 14.6302 19.8983 12.3982C19.8983 10.1662 18.0889 8.35685 15.8569 8.35685C13.6249 8.35685 11.8155 10.1662 11.8155 12.3982C11.8155 14.6302 13.6249 16.4396 15.8569 16.4396ZM31.2141 12.3982C31.2141 14.6302 29.4047 16.4396 27.1728 16.4396C24.9408 16.4396 23.1314 14.6302 23.1314 12.3982C23.1314 10.1662 24.9408 8.35685 27.1728 8.35685C29.4047 8.35685 31.2141 10.1662 31.2141 12.3982Z" fill="white"/>
</svg>
