<svg width="24" height="24" viewBox="0 0 24 24" fill="none" xmlns="http://www.w3.org/2000/svg">
  <path d="M12 3.42859C12.4734 3.42859 12.8571 3.81234 12.8571 4.28573V11.1429H19.7143C20.1877 11.1429 20.5714 11.5266 20.5714 12C20.5714 12.4734 20.1877 12.8572 19.7143 12.8572H12.8571V19.7143C12.8571 20.1877 12.4734 20.5714 12 20.5714C11.5266 20.5714 11.1428 20.1877 11.1428 19.7143V12.8572H4.2857C3.81231 12.8572 3.42856 12.4734 3.42856 12C3.42856 11.5266 3.81231 11.1429 4.2857 11.1429H11.1428V4.28573C11.1428 3.81234 11.5266 3.42859 12 3.42859Z" fill="currentColor"/>
</svg>
