<svg width="24" height="25" viewBox="0 0 24 25" fill="none" xmlns="http://www.w3.org/2000/svg">
  <path d="M16 7.2477V17.8277C16 19.9177 14.47 21.7777 12.39 21.9777C10 22.2077 8 20.3377 8 17.9977V5.6377C8 4.3277 8.94 3.1377 10.24 3.0077C11.74 2.8577 13 4.0277 13 5.4977V15.9977C13 16.5477 12.55 16.9977 12 16.9977C11.45 16.9977 11 16.5477 11 15.9977V7.2477C11 6.8377 10.66 6.4977 10.25 6.4977C9.84 6.4977 9.5 6.8377 9.5 7.2477V15.8577C9.5 17.1677 10.44 18.3577 11.74 18.4877C13.24 18.6377 14.5 17.4677 14.5 15.9977V5.6677C14.5 3.5777 12.97 1.7177 10.89 1.5177C8.51 1.2877 6.5 3.1577 6.5 5.4977V17.7677C6.5 20.6377 8.6 23.2077 11.46 23.4777C14.75 23.7777 17.5 21.2177 17.5 17.9977V7.2477C17.5 6.8377 17.16 6.4977 16.75 6.4977C16.34 6.4977 16 6.8377 16 7.2477Z" fill="currentColor"/>
</svg>
