<svg width="24" height="25" viewBox="0 0 24 25" fill="currentColor" xmlns="http://www.w3.org/2000/svg">
<path d="M19.41 7.91L14.58 3.08C14.21 2.71 13.7 2.5 13.17 2.5H6C4.9 2.5 4.01 3.4 4.01 4.5L4 20.5C4 21.6 4.89 22.5 5.99 22.5H18C19.1 22.5 20 21.6 20 20.5V9.33C20 8.8 19.79 8.29 19.41 7.91ZM15 13.5H13V17.11C13 18.39 12 19.52 10.72 19.5C9.28 19.48 8.16 18.11 8.59 16.59C8.8 15.87 9.39 15.28 10.12 15.08C10.82 14.89 11.48 15.03 12 15.37V12.5C12 11.95 12.45 11.5 13 11.5H15C15.55 11.5 16 11.95 16 12.5C16 13.05 15.55 13.5 15 13.5ZM14 9.5C13.45 9.5 13 9.05 13 8.5V4L18.5 9.5H14Z" />
</svg>
