<svg width="160" height="160" viewBox="0 0 160 160" fill="none" xmlns="http://www.w3.org/2000/svg">
  <ellipse opacity="0.1" cx="80" cy="155.2" rx="80" ry="4.8" fill="currentColor"/>
  <path fill-rule="evenodd" clip-rule="evenodd" d="M61.9313 35.2C62.9759 31.5064 66.3719 28.8 70.4 28.8H102.856C100.15 30.4303 97.8172 32.6163 96.015 35.2H61.9313ZM94.1556 38.4H47.2C41.8981 38.4 37.6 42.6981 37.6 48V107.2H87.2H88C88.8836 107.2 89.6 107.916 89.6 108.8V117.2C89.6 124.048 95.1517 129.6 102 129.6C108.848 129.6 114.4 124.048 114.4 117.2V70.4C102.029 70.4 92 60.3712 92 48C92 44.5645 92.7734 41.3096 94.1556 38.4ZM117.6 70.1732V115.067C122.14 114.306 125.6 110.357 125.6 105.6V67.4033C123.183 68.8017 120.48 69.7613 117.6 70.1732ZM128.8 65.1588V105.6C128.8 112.141 123.894 117.536 117.561 118.306C116.994 126.405 110.244 132.8 102 132.8C101.86 132.8 101.721 132.798 101.582 132.795L101.6 132.8H44C35.1634 132.8 28 125.637 28 116.8V113.6C28 110.065 30.8654 107.2 34.4 107.2V48C34.4 40.9308 40.1308 35.2 47.2 35.2H58.64C59.7519 29.7226 64.5945 25.6 70.4 25.6H112.8V25.6563C113.328 25.619 113.862 25.6 114.4 25.6C126.771 25.6 136.8 35.6288 136.8 48C136.8 54.8879 133.691 61.0497 128.8 65.1588ZM19.2 122.8C19.2 122.137 19.7373 121.6 20.4 121.6C21.0627 121.6 21.6 122.137 21.6 122.8V123.2C21.6 132.037 28.7634 139.2 37.6 139.2H41.28C41.8986 139.2 42.4 139.701 42.4 140.32C42.4 140.939 41.8986 141.44 41.28 141.44H37.6C26.9791 141.44 19.2 133.787 19.2 123.2V122.8ZM20.4 118.4C17.9699 118.4 16 120.37 16 122.8V123.2C16 135.588 25.2459 144.64 37.6 144.64H41.28C43.6659 144.64 45.6 142.706 45.6 140.32C45.6 137.934 43.6659 136 41.28 136H37.6C30.5308 136 24.8 130.269 24.8 123.2V122.8C24.8 120.37 22.8301 118.4 20.4 118.4ZM45.6 93.6C45.6 91.3909 47.3909 89.6 49.6 89.6H97.6C99.8091 89.6 101.6 91.3909 101.6 93.6C101.6 95.8091 99.8091 97.6 97.6 97.6H49.6C47.3909 97.6 45.6 95.8091 45.6 93.6ZM49.6 92.8C49.1582 92.8 48.8 93.1582 48.8 93.6C48.8 94.0418 49.1582 94.4 49.6 94.4H97.6C98.0418 94.4 98.4 94.0418 98.4 93.6C98.4 93.1582 98.0418 92.8 97.6 92.8H49.6ZM95.2 48C95.2 37.3961 103.796 28.8 114.4 28.8C125.004 28.8 133.6 37.3961 133.6 48C133.6 58.6039 125.004 67.2 114.4 67.2C103.796 67.2 95.2 58.6039 95.2 48ZM110.4 37.6C110.4 35.3909 112.191 33.6 114.4 33.6C116.609 33.6 118.4 35.3909 118.4 37.6V47.2C118.4 49.4091 116.609 51.2 114.4 51.2C112.191 51.2 110.4 49.4091 110.4 47.2V37.6ZM114.4 36.8C113.958 36.8 113.6 37.1582 113.6 37.6V47.2C113.6 47.6418 113.958 48 114.4 48C114.842 48 115.2 47.6418 115.2 47.2V37.6C115.2 37.1582 114.842 36.8 114.4 36.8ZM114.4 62.4C112.191 62.4 110.4 60.6091 110.4 58.4C110.4 56.1909 112.191 54.4 114.4 54.4C116.609 54.4 118.4 56.1909 118.4 58.4C118.4 60.6091 116.609 62.4 114.4 62.4ZM113.6 58.4C113.6 58.8418 113.958 59.2 114.4 59.2C114.842 59.2 115.2 58.8418 115.2 58.4C115.2 57.9582 114.842 57.6 114.4 57.6C113.958 57.6 113.6 57.9582 113.6 58.4Z" fill="currentColor"/>
  <rect x="47.5" y="65.5" width="29" height="5" rx="2.5" stroke="currentColor" stroke-width="3"/>
  <rect x="47.5" y="78.5" width="29" height="5" rx="2.5" stroke="currentColor" stroke-width="3"/>
</svg>
