<svg width="12" height="12" viewBox="0 0 12 12" fill="none" xmlns="http://www.w3.org/2000/svg">
  <path d="M3.52508 2.46445C3.23219 2.17156 2.75731 2.17156 2.46442 2.46445C2.17153 2.75734 2.17153 3.23222 2.46442 3.52511L4.93929 5.99999L2.46442 8.47486C2.17153 8.76775 2.17153 9.24263 2.46442 9.53552C2.75731 9.82841 3.23219 9.82841 3.52508 9.53552L5.99995 7.06065L8.47483 9.53552C8.76772 9.82841 9.2426 9.82841 9.53549 9.53552C9.82838 9.24263 9.82838 8.76775 9.53549 8.47486L7.06062 5.99999L9.53549 3.52511C9.82838 3.23222 9.82838 2.75734 9.53549 2.46445C9.2426 2.17156 8.76772 2.17156 8.47483 2.46445L5.99995 4.93933L3.52508 2.46445Z" fill="currentColor"/>
</svg>
