<svg width="16" height="16" viewBox="0 0 16 16" fill="none" xmlns="http://www.w3.org/2000/svg">
  <path d="M3.50908 3.50908C3.7434 3.27476 4.1233 3.27477 4.35761 3.50908L8 7.15149L11.6424 3.50909C11.8767 3.27478 12.2566 3.27478 12.4909 3.5091C12.7253 3.74341 12.7253 4.12331 12.4909 4.35762L8.84853 8.00002L12.4909 11.6424C12.7252 11.8768 12.7252 12.2567 12.4909 12.491C12.2566 12.7253 11.8767 12.7253 11.6424 12.491L8 8.84855L4.35759 12.4909C4.12328 12.7253 3.74338 12.7253 3.50906 12.4909C3.27475 12.2566 3.27475 11.8767 3.50907 11.6424L7.15147 8.00002L3.50908 4.35761C3.27477 4.12329 3.27477 3.74339 3.50908 3.50908Z" fill="currentColor"/>
</svg>
