<svg width="24" height="24" viewBox="0 0 24 24" fill="none" xmlns="http://www.w3.org/2000/svg">
  <rect width="24" height="24" rx="12" fill="white"/>
  <path d="M12 1.71436C17.6806 1.71436 22.2857 6.31943 22.2857 12.0001C22.2857 17.6807 17.6806 22.2858 12 22.2858C6.31935 22.2858 1.71428 17.6807 1.71428 12.0001C1.71428 6.31943 6.31935 1.71436 12 1.71436ZM12 3.42864C7.26612 3.42864 3.42857 7.2662 3.42857 12.0001C3.42857 16.7339 7.26612 20.5715 12 20.5715C16.7339 20.5715 20.5714 16.7339 20.5714 12.0001C20.5714 7.2662 16.7339 3.42864 12 3.42864ZM8.3939 8.39398C8.72864 8.05924 9.27135 8.05924 9.60609 8.39398L12 10.7872L14.3939 8.39398C14.7029 8.08499 15.1891 8.06122 15.5253 8.32267L15.6061 8.39398C15.9408 8.72871 15.9408 9.27143 15.6061 9.60616L13.2129 12.0001L15.6061 14.394C15.9151 14.703 15.9388 15.1892 15.6774 15.5254L15.6061 15.6062C15.2714 15.9409 14.7286 15.9409 14.3939 15.6062L12 13.2129L9.60609 15.6062C9.2971 15.9151 8.8109 15.9389 8.47465 15.6775L8.3939 15.6062C8.05917 15.2714 8.05917 14.7287 8.3939 14.394L10.7871 12.0001L8.3939 9.60616C8.08492 9.29718 8.06115 8.81098 8.3226 8.47473L8.3939 8.39398Z" fill="currentColor"/>
</svg>
