<svg width="16" height="16" viewBox="0 0 16 16" fill="currentColor" xmlns="http://www.w3.org/2000/svg">
    <path d="M12.1576 4.62424C12.3919 4.38992 12.3919 4.01003 12.1576 3.77571C11.9233 3.5414 11.5434 3.5414 11.3091 3.77571L4.33334 10.7514L1.35761 7.77571C1.12329 7.5414 0.743394 7.5414 0.509079 7.77571C0.274765 8.01003 0.274765 8.38992 0.509079 8.62424L3.90908 12.0242C4.0216 12.1368 4.17421 12.2 4.33334 12.2C4.49247 12.2 4.64509 12.1368 4.75761 12.0242L12.1576 4.62424Z"/>
    <path d="M15.4909 4.62424C15.7252 4.38992 15.7252 4.01003 15.4909 3.77571C15.2566 3.5414 14.8767 3.5414 14.6424 3.77571L7.2424 11.1757C7.00808 11.41 7.00808 11.7899 7.2424 12.0242C7.47671 12.2586 7.85661 12.2586 8.09093 12.0242L15.4909 4.62424Z"/>
</svg>
