<svg width="16" height="16" viewBox="0 0 16 16" fill="none" xmlns="http://www.w3.org/2000/svg">
  <path d="M9.97576 6.17574C10.2101 5.94142 10.59 5.94142 10.8243 6.17574C11.0586 6.41005 11.0586 6.78995 10.8243 7.02427L7.75762 10.0909C7.5233 10.3252 7.1434 10.3252 6.90909 10.0909L5.17576 8.3576C4.94144 8.12328 4.94144 7.74339 5.17576 7.50907C5.41007 7.27476 5.78997 7.27476 6.02428 7.50907L7.33335 8.81814L9.97576 6.17574Z" fill="currentColor"/>
  <path fill-rule="evenodd" clip-rule="evenodd" d="M8.00002 1.39999C11.6448 1.39999 14.6 4.35524 14.6 7.99999C14.6 11.6447 11.6448 14.6 8.00002 14.6C4.35528 14.6 1.40002 11.6447 1.40002 7.99999C1.40002 4.35524 4.35528 1.39999 8.00002 1.39999ZM8.00002 2.59999C5.01735 2.59999 2.60002 5.01732 2.60002 7.99999C2.60002 10.9827 5.01735 13.4 8.00002 13.4C10.9827 13.4 13.4 10.9827 13.4 7.99999C13.4 5.01732 10.9827 2.59999 8.00002 2.59999Z" fill="currentColor"/>
</svg>
