<svg width="24" height="24" viewBox="0 0 24 24" fill="none" xmlns="http://www.w3.org/2000/svg">
  <g clip-path="url(#clip0_2378_50984)">
  <path d="M9.17162 7.75736L7.7574 9.17157L10.5858 12L7.7574 14.8284L9.17162 16.2426L12 13.4142L14.8285 16.2426L16.2427 14.8284L13.4143 12L16.2427 9.17157L14.8285 7.75736L12 10.5858L9.17162 7.75736ZM4.92898 4.92893C1.02575 8.83216 1.02575 15.1678 4.92898 19.0711C8.83221 22.9743 15.1679 22.9743 19.0711 19.0711C22.9743 15.1678 22.9743 8.83216 19.0711 4.92893C15.1679 1.0257 8.83221 1.0257 4.92898 4.92893ZM17.6569 17.6569C14.5386 20.7752 9.46153 20.7752 6.34319 17.6569C3.22485 14.5385 3.22485 9.46149 6.34319 6.34315C9.46153 3.22481 14.5386 3.22481 17.6569 6.34315C20.7752 9.46149 20.7752 14.5385 17.6569 17.6569Z" fill="currentColor"/>
  </g>
  <defs>
  <clipPath id="clip0_2378_50984">
  <rect width="24" height="24" fill="white"/>
  </clipPath>
  </defs>
</svg>
