<svg width="16" height="16" viewBox="0 0 16 16" fill="none" xmlns="http://www.w3.org/2000/svg">
  <path d="M13.7116 10.959C13.6178 12.7483 11.0577 14 7.99993 14C4.88451 14 2.28564 12.7006 2.28564 10.8571V5.14286L2.28831 5.04101C2.38208 3.25175 4.9422 2 7.99993 2C11.1154 2 13.7142 3.29943 13.7142 5.14286V10.8571L13.7116 10.959ZM12.572 7.066C11.5226 7.82619 9.85259 8.28571 7.99993 8.28571C6.14761 8.28571 4.4779 7.82636 3.42846 7.06642L3.4285 8C3.4285 8.9969 5.43471 10 7.99993 10C10.5652 10 12.5714 8.9969 12.5714 8L12.572 7.066ZM7.99993 3.14286C5.43471 3.14286 3.4285 4.14596 3.4285 5.14286C3.4285 6.13975 5.43471 7.14286 7.99993 7.14286C10.5652 7.14286 12.5714 6.13975 12.5714 5.14286C12.5714 4.14596 10.5652 3.14286 7.99993 3.14286ZM12.572 9.92314C11.5226 10.6833 9.85259 11.1429 7.99993 11.1429C6.14761 11.1429 4.4779 10.6835 3.42846 9.92356L3.4285 10.8571L3.43146 10.9236C3.51794 11.8981 5.49171 12.8571 7.99993 12.8571C10.5652 12.8571 12.5714 11.854 12.5714 10.8571L12.572 9.92314Z" fill="currentColor"/>
</svg>
