<svg width="28" height="28" viewBox="0 0 28 28" fill="none" xmlns="http://www.w3.org/2000/svg">
  <path fill-rule="evenodd" clip-rule="evenodd" d="M17.0431 2H10.9568C10.2971 1.99998 9.73634 1.99997 9.27298 2.04192C8.78216 2.08636 8.31936 2.18306 7.8757 2.42385C7.21565 2.78208 6.63581 3.4145 6.33608 4.10309C6.07506 4.70273 6.04659 5.3365 6.08749 6.05703C5.46395 5.94568 4.81155 6.0041 4.23936 6.19948C3.04525 6.60722 2 7.67416 2 9.33333C2 10.9011 2.93465 12.3261 4.14924 13.3166C5.17534 14.1534 6.49791 14.7656 7.9038 14.9455C8.07342 15.348 8.25496 15.7309 8.44863 16.0926C9.16922 17.4381 10.0941 18.5449 11.2341 19.2328C11.2011 19.7864 11.1205 20.1638 11.0302 20.428C10.9186 20.7548 10.7801 20.9456 10.63 21.1131C10.5685 21.1819 10.5157 21.2356 10.4504 21.3023C10.4159 21.3374 10.3779 21.3761 10.3332 21.4225C10.2199 21.5403 10.078 21.6939 9.94821 21.8835C9.66019 22.3044 9.5 22.8004 9.5 23.45L9.50001 25C9.50002 25.5523 9.94773 26 10.5 26H17.5C18.0523 26 18.5 25.5523 18.5 25L18.5 23.45C18.5 22.8004 18.3398 22.3044 18.0518 21.8835C17.922 21.6939 17.7801 21.5403 17.6667 21.4225C17.6221 21.3761 17.5842 21.3374 17.5497 21.3023C17.4843 21.2357 17.4315 21.1819 17.3699 21.1131C17.2199 20.9456 17.0814 20.7548 16.9698 20.428C16.8795 20.1638 16.7989 19.7864 16.7659 19.2327C17.9058 18.5448 18.8307 17.438 19.5512 16.0926C19.7449 15.7309 19.9264 15.348 20.0961 14.9456C21.502 14.7656 22.8246 14.1535 23.8508 13.3166C25.0654 12.3261 26 10.9011 26 9.33333C26 7.67416 24.9547 6.60722 23.7606 6.19948C23.1884 6.00409 22.5359 5.94567 21.9124 6.05705C21.9533 5.33652 21.9248 4.70274 21.6638 4.10309C21.364 3.4145 20.7842 2.78208 20.1242 2.42385C19.6805 2.18306 19.2177 2.08636 18.7269 2.04192C18.2635 1.99997 17.7028 1.99998 17.0431 2ZM14.8236 19.9389C14.5575 19.9792 14.2829 20 13.9999 20C13.717 20 13.4425 19.9792 13.1764 19.939C13.1209 20.3717 13.0352 20.7456 12.9229 21.0744C12.7064 21.7083 12.4074 22.1264 12.1199 22.4473C12.027 22.5512 11.9226 22.6577 11.8441 22.7378C11.8173 22.7651 11.7935 22.7894 11.7742 22.8095C11.6825 22.9048 11.633 22.963 11.5987 23.0131C11.5586 23.0717 11.5 23.1663 11.5 23.45L11.5 24H16.5L16.5 23.45C16.5 23.1663 16.4414 23.0717 16.4013 23.0131C16.367 22.963 16.3175 22.9047 16.2258 22.8095C16.2191 22.8025 16.2118 22.795 16.204 22.787C16.1895 22.7721 16.1734 22.7556 16.1559 22.7378C16.0774 22.6577 15.973 22.5512 15.88 22.4473C15.5926 22.1264 15.2936 21.7083 15.0771 21.0744C14.9648 20.7456 14.8791 20.3717 14.8236 19.9389ZM22.5867 11.7667C22.0852 12.1758 21.4926 12.5067 20.8618 12.7223C21.2393 11.3709 21.5191 9.8791 21.7068 8.29017C21.957 8.04001 22.5276 7.89182 23.1144 8.09219C23.6286 8.26777 24 8.65915 24 9.33333C24 10.0989 23.518 11.0072 22.5867 11.7667ZM7.13805 12.7223C6.76055 11.3709 6.48076 9.87916 6.29305 8.2903C6.04288 8.04014 5.47243 7.89182 4.88564 8.09219C4.37141 8.26777 4 8.65915 4 9.33333C4 10.0989 4.48202 11.0072 5.41326 11.7667C5.91481 12.1757 6.50728 12.5066 7.13805 12.7223ZM8.82971 4.18165C8.94388 4.11969 9.10823 4.06502 9.45333 4.03377C9.81582 4.00095 10.2854 4 10.9999 4H16.9999C17.7144 4 18.184 4.00095 18.5465 4.03377C18.8916 4.06502 19.056 4.11969 19.1701 4.18165C19.4381 4.32709 19.7083 4.62176 19.83 4.90133C19.9587 5.19692 19.9576 5.53152 19.8378 6.90929C19.5396 10.3402 18.837 13.1898 17.7881 15.1483C16.7437 17.0985 15.4631 18 13.9999 18C12.5368 18 11.2561 17.0985 10.2117 15.1483C9.16282 13.1898 8.46022 10.3402 8.16205 6.90929C8.04231 5.53152 8.0412 5.19692 8.16987 4.90133C8.29157 4.62176 8.56173 4.32709 8.82971 4.18165Z" fill="currentColor"/>
</svg>
