<svg width="16" height="16" viewBox="0 0 16 16" fill="none" xmlns="http://www.w3.org/2000/svg">
  <path fill-rule="evenodd" clip-rule="evenodd" d="M4.03968 1.60079C4.66557 1.26607 5.28221 1.14285 6.68094 1.14285H7.99999C8.01745 1.14285 8.03473 1.14364 8.0518 1.14517C8.33773 1.15122 8.50423 1.17006 8.68876 1.21259C8.9203 1.26596 9.12949 1.3526 9.33094 1.47859C9.53431 1.60578 9.69036 1.73938 10.0123 2.06129L12.7958 4.84486C13.1177 5.16677 13.2514 5.32282 13.3785 5.52619C13.5045 5.72764 13.5912 5.93683 13.6445 6.16837C13.6871 6.3529 13.7059 6.5194 13.712 6.80534C13.7135 6.8224 13.7143 6.83968 13.7143 6.85714V7.16168C13.7143 7.47728 13.4584 7.73311 13.1428 7.73311C12.8273 7.73311 12.5714 7.47728 12.5714 7.16168V6.85714C12.5714 6.85706 12.5714 6.85722 12.5714 6.85714L12.57 6.85689L9.42856 6.85714C8.63958 6.85714 7.99999 6.21755 7.99999 5.42857L8.00084 2.28711C7.96988 2.28661 7.93659 2.28625 7.90064 2.28602L6.68094 2.28571C5.34668 2.28571 4.95621 2.40666 4.57865 2.60858C4.22056 2.80009 3.94294 3.07771 3.75143 3.4358C3.54951 3.81336 3.42856 4.20383 3.42856 5.53808V10.4619C3.42856 11.7962 3.54951 12.1866 3.75143 12.5642C3.94294 12.9223 4.22056 13.1999 4.57865 13.3914C4.95621 13.5933 5.34668 13.7143 6.68094 13.7143H9.31904C9.45614 13.7143 9.58351 13.713 9.70218 13.7105C10.0177 13.7038 10.2789 13.9542 10.2856 14.2697C10.2923 14.5852 10.0419 14.8464 9.72637 14.8531C9.59857 14.8558 9.46307 14.8571 9.31904 14.8571H6.68094C5.28221 14.8571 4.66557 14.7339 4.03968 14.3992C3.48243 14.1012 3.04167 13.6604 2.74365 13.1032C2.40892 12.4773 2.28571 11.8606 2.28571 10.4619V5.53808C2.28571 4.13936 2.40892 3.52272 2.74365 2.89683C3.04167 2.33957 3.48243 1.89882 4.03968 1.60079ZM9.20415 2.86942L9.14285 2.80857V5.42857C9.14285 5.56883 9.24392 5.68549 9.3772 5.70968L9.42856 5.71428L12.0499 5.71546C12.0303 5.69571 12.0096 5.67492 11.9877 5.65298L9.20415 2.86942Z" fill="currentColor"/>
  <path d="M11.9985 15.4286C11.6829 15.4286 11.4271 15.1727 11.4271 14.8571L11.4271 10.5224L10.1183 11.8312C9.89518 12.0543 9.53337 12.0543 9.31022 11.8312C9.08706 11.608 9.08706 11.2462 9.31022 11.023L11.5945 8.73879C11.8176 8.51563 12.1794 8.51563 12.4026 8.73879L14.6896 11.0258C14.9128 11.249 14.9128 11.6108 14.6896 11.834C14.4665 12.0571 14.1047 12.0571 13.8815 11.834L12.5699 10.5224L12.5699 14.8571C12.5699 15.1727 12.3141 15.4286 11.9985 15.4286Z" fill="currentColor"/>
</svg>
