<svg width="25" height="24" viewBox="0 0 25 24" fill="currentColor"  xmlns="http://www.w3.org/2000/svg">
  <path d="M8.49618 13.901C8.49618 13.404 8.89912 13.001 9.39618 13.001H10.5962C11.0932 13.001 11.4962 13.404 11.4962 13.901C11.4962 14.3981 11.0932 14.801 10.5962 14.801L9.39618 14.801C8.89912 14.801 8.49618 14.3981 8.49618 13.901Z"  />
  <path d="M9.39618 16.1981C8.89912 16.1981 8.49618 16.601 8.49618 17.0981C8.49618 17.5951 8.89912 17.9981 9.39618 17.9981L10.5962 17.9981C11.0932 17.9981 11.4962 17.5951 11.4962 17.0981C11.4962 16.601 11.0932 16.1981 10.5962 16.1981H9.39618Z"  />
  <path d="M13.5 13.901C13.5 13.404 13.9029 13.001 14.4 13.001H15.6C16.0971 13.001 16.5 13.404 16.5 13.901C16.5 14.3981 16.097 14.801 15.6 14.801L14.4 14.801C13.9029 14.801 13.5 14.3981 13.5 13.901Z"  />
  <path d="M14.4 16.1981C13.9029 16.1981 13.5 16.601 13.5 17.0981C13.5 17.5951 13.9029 17.9981 14.4 17.9981L15.6 17.9981C16.097 17.9981 16.5 17.5951 16.5 17.0981C16.5 16.601 16.0971 16.1981 15.6 16.1981H14.4Z"  />
  <path fill-rule="evenodd" clip-rule="evenodd" d="M12.973 1.99993C13.2727 1.99956 13.5594 1.9992 13.8389 2.0663C14.0838 2.12509 14.3179 2.22206 14.5327 2.35365C14.7777 2.50383 14.9802 2.70685 15.1918 2.91898L19.581 7.30816C19.7931 7.51976 19.9961 7.72228 20.1463 7.96734C20.2779 8.18208 20.3749 8.41618 20.4337 8.66107C20.5008 8.94054 20.5004 9.2273 20.5 9.52692L20.5 15.5385C20.5 16.486 20.5 17.2517 20.4493 17.8721C20.3971 18.5114 20.2866 19.0752 20.0204 19.5976C19.5986 20.4255 18.9255 21.0986 18.0976 21.5205C17.5752 21.7866 17.0114 21.8971 16.3721 21.9494C15.7517 22.0001 14.9859 22.0001 14.0384 22H10.9616C10.0141 22.0001 9.24834 22.0001 8.62792 21.9494C7.98863 21.8971 7.42481 21.7866 6.90244 21.5205C6.07453 21.0986 5.40142 20.4255 4.97957 19.5976C4.71341 19.0752 4.60291 18.5114 4.55067 17.8721C4.49998 17.2517 4.49999 16.486 4.5 15.5384V8.46163C4.49999 7.51414 4.49998 6.74838 4.55067 6.12796C4.60291 5.48867 4.71341 4.92485 4.97957 4.40248C5.40142 3.57457 6.07453 2.90146 6.90244 2.47961C7.42481 2.21345 7.98863 2.10295 8.62792 2.05072C9.24834 2.00003 10.0141 2.00003 10.9616 2.00004L12.973 1.99993ZM11 3.80001L12.5 3.79999V5.93542C12.5 6.46528 12.5 6.91647 12.5302 7.2869C12.562 7.67606 12.6317 8.05466 12.8161 8.41659C13.0941 8.96226 13.5378 9.4059 14.0834 9.68394C14.4454 9.86835 14.824 9.93798 15.2131 9.96978C15.5835 10 16.0347 10 16.5645 10L18.7 10L18.7 15.5C18.7 16.495 18.6993 17.1871 18.6553 17.7255C18.6122 18.2535 18.5319 18.5541 18.4166 18.7804C18.1673 19.2696 17.7696 19.6674 17.2804 19.9167C17.0541 20.032 16.7535 20.1122 16.2255 20.1553C15.687 20.1993 14.9949 20.2 14 20.2H11C10.0051 20.2 9.31298 20.1993 8.7745 20.1553C8.24652 20.1122 7.94595 20.032 7.71962 19.9167C7.2304 19.6674 6.83266 19.2696 6.58339 18.7804C6.46807 18.5541 6.38783 18.2535 6.3447 17.7255C6.3007 17.1871 6.3 16.495 6.3 15.5V8.50004C6.3 7.5051 6.3007 6.81302 6.3447 6.27454C6.38783 5.74656 6.46806 5.44599 6.58338 5.21967C6.83265 4.73045 7.2304 4.3327 7.71962 4.08343C7.94595 3.96811 8.24652 3.88788 8.7745 3.84474C9.31298 3.80074 10.0051 3.80001 11 3.80001ZM14.3 4.5728L17.9272 8.20002H16.6C16.0251 8.20002 15.648 8.19932 15.3597 8.17576C15.0818 8.15306 14.9665 8.1137 14.9006 8.08012C14.6936 7.97466 14.5254 7.80639 14.4199 7.59941C14.3863 7.53352 14.347 7.41817 14.3243 7.14033C14.3007 6.85197 14.3 6.47492 14.3 5.90002V4.5728Z"  />
</svg>
