<svg width="24" height="24" viewBox="0 0 24 24" fill="none" xmlns="http://www.w3.org/2000/svg">
  <path fill-rule="evenodd" clip-rule="evenodd" d="M13.5373 6.95518C13.2485 6.37004 12.6525 5.99958 12 5.99958C11.3475 5.99958 10.7515 6.37004 10.4627 6.95518L9.60207 8.6991L7.67754 8.97875C7.03179 9.07259 6.49531 9.52489 6.29367 10.1455C6.09203 10.7661 6.26019 11.4473 6.72746 11.9028L8.12006 13.2603L7.79132 15.177C7.68101 15.8201 7.94539 16.4701 8.4733 16.8537C9.00121 17.2372 9.70108 17.2878 10.2787 16.9842L12 16.0792L13.7214 16.9842C14.2989 17.2878 14.9988 17.2372 15.5267 16.8537C16.0546 16.4701 16.319 15.8201 16.2087 15.177L15.88 13.2603L17.2726 11.9028C17.7398 11.4473 17.908 10.7661 17.7063 10.1455C17.5047 9.52489 16.9682 9.07259 16.3225 8.97875L14.3979 8.6991L13.5373 6.95518ZM10.7405 10.266L12 7.71387L13.2596 10.266L16.076 10.6752L14.038 12.6618L14.5191 15.4668L12 14.1424L9.48093 15.4668L9.96203 12.6618L7.92405 10.6752L10.7405 10.266Z" fill="currentColor"/>
  <path fill-rule="evenodd" clip-rule="evenodd" d="M12 1.71387C6.31937 1.71387 1.71429 6.31894 1.71429 11.9996C1.71429 17.6802 6.31937 22.2853 12 22.2853C17.6807 22.2853 22.2857 17.6802 22.2857 11.9996C22.2857 6.31894 17.6807 1.71387 12 1.71387ZM3.42858 11.9996C3.42858 7.26571 7.26614 3.42815 12 3.42815C16.7339 3.42815 20.5714 7.26571 20.5714 11.9996C20.5714 16.7335 16.7339 20.571 12 20.571C7.26614 20.571 3.42858 16.7335 3.42858 11.9996Z" fill="currentColor"/>
</svg>
