<svg width="20" height="20" viewBox="0 0 20 20" fill="none" xmlns="http://www.w3.org/2000/svg">
  <path d="M13.3333 9.16602H6.66667C6.20833 9.16602 5.83333 9.54102 5.83333 9.99935C5.83333 10.4577 6.20833 10.8327 6.66667 10.8327H13.3333C13.7917 10.8327 14.1667 10.4577 14.1667 9.99935C14.1667 9.54102 13.7917 9.16602 13.3333 9.16602ZM15.8333 3.33268H15V2.49935C15 2.04102 14.625 1.66602 14.1667 1.66602C13.7083 1.66602 13.3333 2.04102 13.3333 2.49935V3.33268H6.66667V2.49935C6.66667 2.04102 6.29167 1.66602 5.83333 1.66602C5.375 1.66602 5 2.04102 5 2.49935V3.33268H4.16667C3.24167 3.33268 2.5 4.08268 2.5 4.99935V16.666C2.5 17.5827 3.24167 18.3327 4.16667 18.3327H15.8333C16.75 18.3327 17.5 17.5827 17.5 16.666V4.99935C17.5 4.08268 16.75 3.33268 15.8333 3.33268ZM15 16.666H5C4.54167 16.666 4.16667 16.291 4.16667 15.8327V7.49935H15.8333V15.8327C15.8333 16.291 15.4583 16.666 15 16.666ZM10.8333 12.4993H6.66667C6.20833 12.4993 5.83333 12.8743 5.83333 13.3327C5.83333 13.791 6.20833 14.166 6.66667 14.166H10.8333C11.2917 14.166 11.6667 13.791 11.6667 13.3327C11.6667 12.8743 11.2917 12.4993 10.8333 12.4993Z" fill="currentColor"/>
</svg>
