<svg xmlns="http://www.w3.org/2000/svg" width="21" height="22" viewBox="0 0 21 22" fill="currentColor">
  <path d="M18 10V4C18 2.9 17.1 2 16 2H15V0H13V2H5V0H3V2H2C0.9 2 0 2.9 0 4V18C0 19.1 0.9 20 2 20H9V18H2V8H16V10H18ZM16 6H2V4H16V6ZM12.64 18C13.07 19.45 14.41 20.5 16 20.5C17.93 20.5 19.5 18.93 19.5 17C19.5 15.07 17.93 13.5 16 13.5C15.05 13.5 14.18 13.88 13.55 14.5H15V16H11V12H12.5V13.43C13.4 12.55 14.64 12 16 12C18.76 12 21 14.24 21 17C21 19.76 18.76 22 16 22C13.58 22 11.56 20.28 11.1 18H12.64Z" />
</svg>