<svg xmlns="http://www.w3.org/2000/svg" width="24" height="24" viewBox="0 0 24 24" fill="currentColor">
  <path d="M14 10V8.48C14 7.77 13.29 7.29 12.63 7.55L9 9V8.52C9 7.8 8.27 7.31 7.61 7.6L3.21 9.48C2.48 9.8 2 10.52 2 11.32V20C2 21.1 2.9 22 4 22H20C21.1 22 22 21.1 22 20V10H14ZM9 17C9 17.55 8.55 18 8 18C7.45 18 7 17.55 7 17V15C7 14.45 7.45 14 8 14C8.55 14 9 14.45 9 15V17ZM13 17C13 17.55 12.55 18 12 18C11.45 18 11 17.55 11 17V15C11 14.45 11.45 14 12 14C12.55 14 13 14.45 13 15V17ZM17 17C17 17.55 16.55 18 16 18C15.45 18 15 17.55 15 17V15C15 14.45 15.45 14 16 14C16.55 14 17 14.45 17 15V17Z" />
  <path d="M20.12 2H18.89C18.38 2 17.96 2.38 17.9 2.88L17.2 8.5H21.8L21.11 2.88C21.05 2.38 20.62 2 20.12 2Z"/>
</svg>