<svg width="127" height="128" viewBox="0 0 127 128" fill="none" xmlns="http://www.w3.org/2000/svg">
  <g clip-path="url(#clip0_4484_18635)">
    <path d="M116.625 19.1733C113.685 16.6293 109.795 15.552 105.941 16.176C103.815 16.528 101.893 17.4773 100.25 18.8V18.6613C100.25 11.312 94.3595 5.32796 87.125 5.32796C83.765 5.32796 80.7305 6.65596 78.41 8.76796C76.5673 3.66396 71.7793 -0.00537109 66.125 -0.00537109C58.8905 -0.00537109 53 5.97863 53 13.328V13.4666C51.3568 12.144 49.4353 11.1946 47.309 10.8426C43.466 10.224 39.5653 11.296 36.6253 13.84C33.6853 16.3786 32 20.08 32 24V80.5387L22.571 72.9226C17.2895 67.9093 8.98403 68.1866 4.04378 73.5573C-0.896466 78.928 -0.623466 87.3867 4.62653 92.384L22.235 109.632C34.331 121.477 50.2385 128 67.0385 128H79.3865C102.471 128 121.25 108.923 121.25 85.472V29.3333C121.25 25.4186 119.565 21.712 116.625 19.1733ZM116 85.472C116 105.984 99.578 122.667 79.3865 122.667H67.0385C51.6088 122.667 36.9875 116.672 25.8785 105.792L8.24378 88.5173C5.07278 85.4986 4.91003 80.416 7.87628 77.1946C9.30953 75.6373 11.2573 74.7413 13.352 74.6666C15.4993 74.6293 17.4523 75.3547 19.1428 76.9493L32.987 88.1493C33.7798 88.7893 34.856 88.9173 35.7643 88.464C36.6725 88.0213 37.25 87.088 37.25 86.064V24C37.25 21.6533 38.2633 19.4293 40.0273 17.904C41.8175 16.3573 44.1118 15.728 46.469 16.112C50.1913 16.7253 53.0053 20.3626 53.0053 24.5706V56C53.0053 57.472 54.1813 58.6666 55.6303 58.6666C57.0793 58.6666 58.2553 57.472 58.2553 56V13.3333C58.2553 8.92263 61.7885 5.3333 66.1303 5.3333C70.472 5.3333 74.0053 8.92263 74.0053 13.3333V56C74.0053 57.472 75.1813 58.6666 76.6303 58.6666C78.0793 58.6666 79.2553 57.472 79.2553 56V18.6666C79.2553 14.256 82.7885 10.6666 87.1303 10.6666C91.472 10.6666 95.0053 14.256 95.0053 18.6666V56C95.0053 57.472 96.1813 58.6666 97.6303 58.6666C99.0793 58.6666 100.255 57.472 100.255 56V29.904C100.255 25.696 103.064 22.0586 106.786 21.4453C109.154 21.0506 111.438 21.6906 113.228 23.2373C114.992 24.7626 116.005 26.9866 116.005 29.3333L116 85.472Z" fill="#99A2AD"/>
  </g>
  <defs>
    <clipPath id="clip0_4484_18635">
      <rect width="126" height="128" fill="white" transform="translate(0.5)"/>
    </clipPath>
  </defs>
</svg>
