<svg width="24" height="24" viewBox="0 0 24 24" fill="currentColor" xmlns="http://www.w3.org/2000/svg">
  <path d="M21.69 18.523L16.97 13.803C16.49 13.323 15.98 13.213 15.39 13.213L12.85 15.753C12.85 16.343 12.96 16.863 13.44 17.333L18.16 22.053C18.55 22.443 19.18 22.443 19.57 22.053L21.69 19.933C22.08 19.553 22.08 18.913 21.69 18.523Z"/>
  <path d="M16.65 9.84297C17.04 10.233 17.67 10.233 18.06 9.84297L18.77 9.13297L20.89 11.253C22.06 10.083 22.06 8.18297 20.89 7.01297L18.06 4.18297C17.67 3.79297 17.04 3.79297 16.65 4.18297L15.94 4.89297V2.35297C15.94 1.73297 15.18 1.40297 14.73 1.85297L12.19 4.39297C11.74 4.84297 12.07 5.60297 12.69 5.60297H15.23L14.52 6.31297C14.13 6.70297 14.13 7.33297 14.52 7.72297L14.87 8.07297L11.98 10.963L7.86999 6.83297V5.83297C7.86999 5.56297 7.75999 5.31297 7.57999 5.12297L5.55999 3.09297C5.16999 2.70297 4.53999 2.70297 4.14999 3.09297L2.72999 4.51297C2.33999 4.90297 2.33999 5.53297 2.72999 5.92297L4.74999 7.95297C4.93999 8.14297 5.18999 8.24297 5.45999 8.24297H6.45999L10.59 12.373L9.73999 13.223H8.43999C7.90999 13.223 7.39999 13.433 7.02999 13.813L2.30999 18.533C1.91999 18.923 1.91999 19.553 2.30999 19.943L4.42999 22.063C4.81999 22.453 5.44999 22.453 5.83999 22.063L10.56 17.343C10.94 16.963 11.15 16.463 11.15 15.933V14.643L16.3 9.49297L16.65 9.84297Z"/>
</svg>
