<svg width="24" height="24" viewBox="0 0 24 24" fill="none" xmlns="http://www.w3.org/2000/svg">
  <path d="M13.404 3.00178C8.31401 2.86178 4.14401 6.95178 4.14401 12.0018H2.35401C1.90401 12.0018 1.68401 12.5418 2.00401 12.8518L4.79401 15.6518C4.99401 15.8518 5.30401 15.8518 5.50401 15.6518L8.29401 12.8518C8.60401 12.5418 8.38401 12.0018 7.93401 12.0018H6.14401C6.14401 8.10178 9.32401 4.95178 13.244 5.00178C16.964 5.05178 20.094 8.18178 20.144 11.9018C20.194 15.8118 17.044 19.0018 13.144 19.0018C11.534 19.0018 10.044 18.4518 8.86401 17.5218C8.46401 17.2118 7.90401 17.2418 7.54401 17.6018C7.12401 18.0218 7.15401 18.7318 7.62401 19.0918C9.14401 20.2918 11.054 21.0018 13.144 21.0018C18.194 21.0018 22.284 16.8318 22.144 11.7418C22.014 7.05178 18.094 3.13178 13.404 3.00178ZM12.894 8.00178C12.484 8.00178 12.144 8.34178 12.144 8.75178V12.4318C12.144 12.7818 12.334 13.1118 12.634 13.2918L15.754 15.1418C16.114 15.3518 16.574 15.2318 16.784 14.8818C16.994 14.5218 16.874 14.0618 16.524 13.8518L13.644 12.1418V8.74178C13.644 8.34178 13.304 8.00178 12.894 8.00178Z" fill="currentColor"/>
</svg>
