<svg width="24" height="24" viewBox="0 0 24 24" fill="none" xmlns="http://www.w3.org/2000/svg">
  <path d="M8.24008 9.80569H2.22008C1.73008 9.80569 1.53008 10.4257 1.93008 10.7157L6.84008 14.2257L4.95008 20.3257C4.81008 20.7857 5.34008 21.1657 5.73008 20.8757L10.6601 17.1157L15.5901 20.8657C15.9801 21.1557 16.5101 20.7857 16.3701 20.3157L14.4801 14.2157L19.3901 10.7057C19.7901 10.4257 19.5901 9.79569 19.1001 9.79569H13.0801L11.1301 3.37569C10.9901 2.90569 10.3201 2.90569 10.1701 3.37569L8.24008 9.80569ZM20.5601 20.3157L19.1601 15.7957L22.0701 13.7157C22.4701 13.4357 22.2701 12.8057 21.7801 12.8057H19.9001L16.8201 15.0057L18.2801 19.7257L19.7801 20.8657C20.1701 21.1557 20.7001 20.7757 20.5601 20.3157ZM16.6601 7.80569L15.3201 3.38569C15.1801 2.91569 14.5101 2.91569 14.3601 3.38569L13.7901 5.25569L14.5701 7.80569H16.6601Z" fill="currentColor"/>
</svg>
