<svg width="24" height="24" viewBox="0 0 24 24" fill="none" xmlns="http://www.w3.org/2000/svg">
  <path d="M6.29104 8.11L10.181 12L6.29104 15.89C5.90104 16.28 5.90104 16.91 6.29104 17.3C6.68104 17.69 7.31104 17.69 7.70104 17.3L12.291 12.71C12.681 12.32 12.681 11.69 12.291 11.3L7.70104 6.7C7.31104 6.31 6.68104 6.31 6.29104 6.7C5.91104 7.09 5.91104 7.73 6.29104 8.11ZM17.001 6C17.551 6 18.001 6.45 18.001 7V17C18.001 17.55 17.551 18 17.001 18C16.451 18 16.001 17.55 16.001 17V7C16.001 6.45 16.451 6 17.001 6Z" fill="currentColor"/>
</svg>
