<svg width="16" height="16" viewBox="0 0 16 16" fill="none" xmlns="http://www.w3.org/2000/svg">
  <path fill-rule="evenodd" clip-rule="evenodd" d="M8.00152 2.53334C6.58364 2.53334 5.43485 3.68195 5.43485 5.09806C5.43485 6.73589 6.40611 8.49862 7.29301 9.74929C7.66088 10.2681 8.35981 10.2668 8.72573 9.74673C9.60545 8.49647 10.5682 6.73528 10.5682 5.09806C10.5682 3.68195 9.4194 2.53334 8.00152 2.53334ZM4.23485 5.09806C4.23485 3.01851 5.92159 1.33334 8.00152 1.33334C10.0814 1.33334 11.7682 3.01851 11.7682 5.09806C11.7682 7.13001 10.6101 9.15393 9.70712 10.4373C8.86426 11.6351 7.16134 11.6381 6.31415 10.4434C5.40436 9.16047 4.23485 7.13361 4.23485 5.09806Z" fill="currentColor"/>
  <path d="M9.16819 5.16665C9.16819 5.81099 8.64585 6.33332 8.00152 6.33332C7.35719 6.33332 6.83485 5.81099 6.83485 5.16665C6.83485 4.52232 7.35719 3.99999 8.00152 3.99999C8.64585 3.99999 9.16819 4.52232 9.16819 5.16665Z" fill="currentColor"/>
  <path fill-rule="evenodd" clip-rule="evenodd" d="M11.474 9.54723C11.6872 9.29357 12.0657 9.26079 12.3194 9.47401C12.8745 9.94064 13.3364 10.5332 13.3364 11.3333C13.3364 12.5021 12.6272 13.3584 11.644 13.891C10.6736 14.4165 9.3814 14.6677 7.99997 14.6677C6.6064 14.6677 5.31519 14.38 4.34974 13.8383C3.38499 13.297 2.66666 12.4463 2.66666 11.3333C2.66666 10.5408 3.14155 9.93605 3.67614 9.47777C3.92772 9.2621 4.3065 9.29122 4.52217 9.5428C4.73784 9.79438 4.70873 10.1732 4.45714 10.3888C4.02277 10.7612 3.86666 11.0624 3.86666 11.3333C3.86666 11.8591 4.19498 12.3755 4.93688 12.7918C5.67809 13.2076 6.75353 13.4677 7.99997 13.4677C9.25856 13.4677 10.3346 13.2355 11.0724 12.8358C11.7974 12.4431 12.1364 11.9322 12.1364 11.3333C12.1364 11.0527 11.9899 10.7647 11.5472 10.3926C11.2936 10.1794 11.2608 9.80088 11.474 9.54723Z" fill="currentColor"/>
</svg>
