<svg width="162" height="163" viewBox="0 0 162 163" fill="none" xmlns="http://www.w3.org/2000/svg">
  <ellipse opacity="0.1" cx="81" cy="157.64" rx="81" ry="4.86" fill="currentColor"/>
  <path fill-rule="evenodd" clip-rule="evenodd" d="M98.8769 29.0403C98.6303 29.0445 98.4298 29.1528 98.281 29.35C98.1233 29.5589 98.0321 29.8653 98.0872 30.2026C98.186 30.807 98.8464 31.4472 99.8607 31.5086C103.441 31.7255 107.162 33.1541 110.305 35.2753C113.444 37.3945 116.14 40.295 117.547 43.5878C117.941 44.51 118.728 44.901 119.284 44.81C119.6 44.7585 119.842 44.5865 119.978 44.3884C120.104 44.203 120.137 44.0035 120.07 43.7936C117.329 35.316 107.934 28.8859 98.8769 29.0403ZM94.9043 30.7226C94.5212 28.3773 96.122 25.8617 98.8219 25.8157C109.217 25.6384 119.937 32.8978 123.138 42.8015C123.959 45.3388 122.102 47.6176 119.804 47.9929C117.373 48.3902 115.377 46.7174 114.581 44.8549C113.476 42.2675 111.262 39.8127 108.5 37.9485C105.741 36.0863 102.567 34.9036 99.6657 34.7278C97.5686 34.6009 95.3081 33.1944 94.9043 30.7226ZM82.531 35.2703C64.93 35.2703 50.2411 47.6215 46.8878 64.0038C32.8863 65.3358 21.8626 76.8555 21.8626 91.0475C21.8626 94.4561 22.4989 97.7219 23.662 100.733C21.4996 104.197 20.25 108.289 20.25 112.673C20.25 125.141 30.3575 135.249 42.8258 135.249C55.2941 135.249 65.4016 125.141 65.4016 112.673C65.4016 100.205 55.2941 90.0972 42.8258 90.0972C36.1459 90.0972 30.1437 92.9984 26.0103 97.6094C25.4094 95.5246 25.0877 93.3238 25.0877 91.0475C25.0877 78.221 35.3634 67.7811 48.3262 67.1322C49.0828 67.0943 49.711 66.5349 49.836 65.7878C52.4191 50.3468 66.0545 38.4954 82.531 38.4954C100.859 38.4954 115.708 53.1361 115.708 71.0921V76.7936C115.708 77.6842 116.43 78.4062 117.321 78.4062H119.843C130.158 78.4062 138.525 86.6725 138.525 96.749C138.525 106.826 130.158 115.092 119.843 115.092H105C104.109 115.092 103.387 115.814 103.387 116.704C103.387 117.595 104.109 118.317 105 118.317H119.843C131.887 118.317 141.75 108.658 141.75 96.749C141.75 84.8404 131.887 75.1811 119.843 75.1811H118.934V71.0921C118.934 51.3039 102.588 35.2703 82.531 35.2703ZM23.4751 112.673C23.4751 101.986 32.1387 93.3223 42.8258 93.3223C53.5129 93.3223 62.1765 101.986 62.1765 112.673C62.1765 123.36 53.5129 132.024 42.8258 132.024C32.1387 132.024 23.4751 123.36 23.4751 112.673ZM38.7944 102.191C38.7944 99.9649 40.5993 98.16 42.8258 98.16C45.0523 98.16 46.8572 99.9649 46.8572 102.191V111.867C46.8572 114.093 45.0523 115.898 42.8258 115.898C40.5993 115.898 38.7944 114.093 38.7944 111.867V102.191ZM42.8258 101.385C42.3805 101.385 42.0195 101.746 42.0195 102.191V111.867C42.0195 112.312 42.3805 112.673 42.8258 112.673C43.2711 112.673 43.6321 112.312 43.6321 111.867V102.191C43.6321 101.746 43.2711 101.385 42.8258 101.385ZM42.8258 127.186C40.5993 127.186 38.7944 125.381 38.7944 123.155C38.7944 120.928 40.5993 119.123 42.8258 119.123C45.0523 119.123 46.8572 120.928 46.8572 123.155C46.8572 125.381 45.0523 127.186 42.8258 127.186ZM42.0195 123.155C42.0195 123.6 42.3805 123.961 42.8258 123.961C43.2711 123.961 43.6321 123.6 43.6321 123.155C43.6321 122.709 43.2711 122.348 42.8258 122.348C42.3805 122.348 42.0195 122.709 42.0195 123.155Z" fill="currentColor"/>
  <path fill-rule="evenodd" clip-rule="evenodd" d="M94.016 86.5116C96.6994 86.5116 98.2091 89.5975 96.5623 91.7161L84.3514 107.424C83.0602 109.085 80.55 109.085 79.2589 107.424L67.048 91.7161C65.4011 89.5975 66.9109 86.5116 69.5943 86.5116L77.7737 86.5116L77.7737 64.339C77.7737 62.5578 79.2177 61.1139 80.9989 61.1139L82.6114 61.1139C84.3926 61.1139 85.8365 62.5578 85.8365 64.339L85.8365 86.5116L94.016 86.5116Z" fill="currentColor"/>
</svg>
