<svg width="24" height="24" viewBox="0 0 24 24" fill="currentColor" xmlns="http://www.w3.org/2000/svg">
    <path d="M20.5863 20.3986L3.60631 3.41864C3.21631 3.02864 2.58631 3.02864 2.19631 3.41864C1.80631 3.80864 1.80631 4.43864 2.19631 4.82864L3.75631 6.38864C2.50631 8.26864 1.87631 10.5986 2.16631 13.0886C2.69631 17.6286 6.37631 21.3086 10.9063 21.8286C13.3963 22.1186 15.7163 21.4886 17.6063 20.2386L19.1663 21.7986C19.5563 22.1886 20.1863 22.1886 20.5763 21.7986C20.9763 21.4186 20.9763 20.7886 20.5863 20.3986ZM9.97631 15.7986L7.14631 12.9686C6.75631 12.5786 6.75631 11.9486 7.14631 11.5586C7.53631 11.1686 8.16631 11.1686 8.55631 11.5586L10.6763 13.6786L10.8563 13.4986L12.2663 14.9086L11.3863 15.7886C10.9963 16.1886 10.3663 16.1886 9.97631 15.7986ZM13.6863 10.6686L6.58631 3.56864C8.46631 2.31864 10.7963 1.68864 13.2863 1.97864C17.8263 2.50864 21.5063 6.18864 22.0263 10.7186C22.3163 13.2086 21.6863 15.5386 20.4363 17.4186L15.0963 12.0786L17.0363 10.1386C17.4263 9.74864 17.4263 9.11864 17.0363 8.72864C16.6463 8.33864 16.0163 8.33864 15.6263 8.72864L13.6863 10.6686Z"
    />
</svg>