<svg width="24" height="24" viewBox="0 0 24 24" fill="currentColor" xmlns="http://www.w3.org/2000/svg">
<path d="M17.4139 16.29L21.0039 12.7C21.3939 12.31 21.3939 11.68 21.0039 11.29L17.4139 7.7C17.0239 7.31 16.3939 7.31 16.0039 7.7C15.6139 8.09 15.6139 8.72 16.0039 9.11L17.8739 11H9.70386C9.15386 11 8.70386 11.45 8.70386 12C8.70386 12.55 9.15386 13 9.70386 13H17.8739L15.9939 14.88C15.6039 15.27 15.6039 15.9 15.9939 16.29C16.3839 16.68 17.0239 16.68 17.4139 16.29Z" />
<path d="M18.7039 19H4.70386V5H18.7039V6C18.7039 6.55 19.1539 7 19.7039 7C20.2539 7 20.7039 6.55 20.7039 6V5C20.7039 3.9 19.8039 3 18.7039 3H4.70386C3.60386 3 2.70386 3.9 2.70386 5V19C2.70386 20.1 3.60386 21 4.70386 21H18.7039C19.8139 21 20.7039 20.1 20.7039 19V18C20.7039 17.45 20.2539 17 19.7039 17C19.1539 17 18.7039 17.45 18.7039 18V19Z" />
</svg>
