<svg width="24" height="24" viewBox="0 0 24 24" fill="none" xmlns="http://www.w3.org/2000/svg">
  <path fill-rule="evenodd" clip-rule="evenodd" d="M14.2593 7.47792L5.22219 16.515C5.0159 16.7213 4.90001 17.0011 4.90001 17.2929L4.90001 19C4.90001 19.0552 4.94478 19.1 5.00001 19.1H6.70711C6.99885 19.1 7.27864 18.9841 7.48493 18.7778L16.522 9.74066L14.2593 7.47792ZM15.5321 6.20513L17.7948 8.46787L18.9262 7.3365C19.1605 7.10219 19.1605 6.72229 18.9262 6.48797L17.512 5.07376C17.2777 4.83944 16.8978 4.83944 16.6634 5.07376L15.5321 6.20513ZM3.94939 15.2423L15.3907 3.80097C16.3279 2.86371 17.8475 2.86371 18.7848 3.80097L20.199 5.21518C21.1362 6.15244 21.1362 7.67203 20.199 8.60929L8.75772 20.0506C8.21387 20.5944 7.47624 20.9 6.70711 20.9L5.00001 20.9C3.95067 20.9 3.10001 20.0493 3.10001 19L3.10001 17.2929C3.10001 16.5237 3.40554 15.7861 3.94939 15.2423Z" fill="black" fill-opacity="0.5"/>
</svg>
