<svg xmlns="http://www.w3.org/2000/svg" width="24" height="24" viewBox="0 0 24 24" fill="currentColor">
  <path d="M12.7038 9.20312H2.70375C2.15375 9.20312 1.70375 9.65312 1.70375 10.2031C1.70375 10.7531 2.15375 11.2031 2.70375 11.2031H12.7038C13.2538 11.2031 13.7038 10.7531 13.7038 10.2031C13.7038 9.65312 13.2538 9.20312 12.7038 9.20312ZM12.7038 5.20312H2.70375C2.15375 5.20312 1.70375 5.65312 1.70375 6.20312C1.70375 6.75312 2.15375 7.20312 2.70375 7.20312H12.7038C13.2538 7.20312 13.7038 6.75312 13.7038 6.20312C13.7038 5.65312 13.2538 5.20312 12.7038 5.20312ZM2.70375 15.2031H8.70375C9.25375 15.2031 9.70375 14.7531 9.70375 14.2031C9.70375 13.6531 9.25375 13.2031 8.70375 13.2031H2.70375C2.15375 13.2031 1.70375 13.6531 1.70375 14.2031C1.70375 14.7531 2.15375 15.2031 2.70375 15.2031ZM21.9137 11.4131L22.0037 11.5031C22.3937 11.8931 22.3937 12.5231 22.0037 12.9131L16.4237 18.5031C16.0337 18.8931 15.4038 18.8931 15.0138 18.5031L11.9238 15.4131C11.5338 15.0231 11.5338 14.3931 11.9238 14.0031L12.0138 13.9131C12.4038 13.5231 13.0338 13.5231 13.4238 13.9131L15.7238 16.2131L20.5037 11.4231C20.8837 11.0231 21.5238 11.0231 21.9137 11.4131Z" />
</svg>