<svg xmlns="http://www.w3.org/2000/svg" width="24" height="24" viewBox="0 0 24 24" fill="currentColor">
<path d="M19.928 8.66759L16.328 10.3476L13.998 8.01759V6.61759L16.328 4.28759L19.928 5.96759C20.308 6.14759 20.748 5.97759 20.928 5.60759C21.108 5.22759 20.938 4.78759 20.568 4.60759L16.648 2.77759C16.268 2.59759 15.818 2.67759 15.518 2.97759L13.778 4.71759C13.598 4.47759 13.318 4.31759 12.998 4.31759C12.448 4.31759 11.998 4.76759 11.998 5.31759V6.31759H8.81805C8.39805 5.15759 7.29805 4.31759 5.99805 4.31759C4.33805 4.31759 2.99805 5.65759 2.99805 7.31759C2.99805 8.41759 3.59805 9.36759 4.47805 9.89759L7.07805 18.3176H5.99805C4.89805 18.3176 3.99805 19.2176 3.99805 20.3176V21.3176H16.998V20.3176C16.998 19.2176 16.098 18.3176 14.998 18.3176H13.378L8.40805 9.08759C8.57805 8.84759 8.71805 8.59759 8.81805 8.31759H11.998V9.31759C11.998 9.86759 12.448 10.3176 12.998 10.3176C13.318 10.3176 13.598 10.1576 13.778 9.91759L15.518 11.6576C15.818 11.9576 16.268 12.0376 16.648 11.8576L20.568 10.0276C20.948 9.84759 21.108 9.40759 20.928 9.02759C20.748 8.65759 20.308 8.48759 19.928 8.66759ZM5.99805 8.31759C5.44805 8.31759 4.99805 7.86759 4.99805 7.31759C4.99805 6.76759 5.44805 6.31759 5.99805 6.31759C6.54805 6.31759 6.99805 6.76759 6.99805 7.31759C6.99805 7.86759 6.54805 8.31759 5.99805 8.31759ZM11.108 18.3176H9.16805L6.70805 10.3176H6.80805L11.108 18.3176Z"/>
</svg>

