<svg width="24" height="24" viewBox="0 0 24 24" fill="none" xmlns="http://www.w3.org/2000/svg">
  <path d="M16.7071 16.7071C16.3166 17.0976 15.6834 17.0976 15.2929 16.7071L12 13.4142L8.70711 16.7071C8.31658 17.0976 7.68342 17.0976 7.29289 16.7071C6.90237 16.3166 6.90237 15.6834 7.29289 15.2929L10.5858 12C11.3668 11.219 12.6332 11.2189 13.4142 12L16.7071 15.2929C17.0976 15.6834 17.0976 16.3166 16.7071 16.7071Z" fill="currentColor"/>
  <path d="M15.2929 12.1071C15.6834 12.4976 16.3166 12.4976 16.7071 12.1071C17.0976 11.7166 17.0976 11.0834 16.7071 10.6929L13.4142 7.39999C12.6332 6.61894 11.3668 6.61895 10.5858 7.39999L7.29289 10.6929C6.90237 11.0834 6.90237 11.7166 7.29289 12.1071C7.68342 12.4976 8.31658 12.4976 8.70711 12.1071L12 8.81421L15.2929 12.1071Z" fill="currentColor"/>
  <path fill-rule="evenodd" clip-rule="evenodd" d="M12 22C17.5228 22 22 17.5228 22 12C22 6.47715 17.5228 2 12 2C6.47715 2 2 6.47715 2 12C2 17.5228 6.47715 22 12 22ZM12 20C16.4183 20 20 16.4183 20 12C20 7.58172 16.4183 4 12 4C7.58172 4 4 7.58172 4 12C4 16.4183 7.58172 20 12 20Z" fill="currentColor"/>
</svg>
