<svg width="24" height="24" viewBox="0 0 24 24" fill="none" xmlns="http://www.w3.org/2000/svg">
  <path fill-rule="evenodd" clip-rule="evenodd" d="M14.5384 3H9.4616H9.46159C8.51409 2.99999 7.74834 2.99998 7.12792 3.05067C6.48863 3.10291 5.92481 3.21341 5.40244 3.47957C4.57453 3.90141 3.90141 4.57453 3.47957 5.40244C3.21341 5.92481 3.10291 6.48863 3.05067 7.12792C2.99998 7.74834 2.99999 8.51409 3 9.46158V9.46159V14.5384V14.5384C2.99999 15.4859 2.99998 16.2517 3.05067 16.8721C3.10291 17.5114 3.21341 18.0752 3.47957 18.5976C3.90141 19.4255 4.57453 20.0986 5.40244 20.5204C5.92481 20.7866 6.48863 20.8971 7.12792 20.9493C7.74834 21 8.51409 21 9.46159 21H14.5384C15.4859 21 16.2517 21 16.8721 20.9493C17.5114 20.8971 18.0752 20.7866 18.5976 20.5204C19.4255 20.0986 20.0986 19.4255 20.5204 18.5976C20.7866 18.0752 20.8971 17.5114 20.9493 16.8721C21 16.2517 21 15.4859 21 14.5384V9.46159C21 8.51409 21 7.74834 20.9493 7.12792C20.8971 6.48863 20.7866 5.92481 20.5204 5.40244C20.0986 4.57453 19.4255 3.90141 18.5976 3.47957C18.0752 3.21341 17.5114 3.10291 16.8721 3.05067C16.2517 2.99998 15.4859 2.99999 14.5384 3H14.5384ZM6.21963 5.08338C6.44595 4.96807 6.74652 4.88783 7.2745 4.8447C7.81298 4.8007 8.50506 4.8 9.5 4.8H11.1L11.1 13.2018H4.8V9.5C4.8 8.50506 4.8007 7.81298 4.8447 7.2745C4.88783 6.74652 4.96807 6.44595 5.08338 6.21963C5.33265 5.7304 5.7304 5.33265 6.21963 5.08338ZM4.8003 15.0018H11.1V19.2H9.5C8.50506 19.2 7.81298 19.1993 7.2745 19.1553C6.74652 19.1122 6.44595 19.0319 6.21963 18.9166C5.7304 18.6673 5.33265 18.2696 5.08338 17.7804C4.96807 17.5541 4.88783 17.2535 4.8447 16.7255C4.80851 16.2826 4.80161 15.7357 4.8003 15.0018ZM12.9 19.2H14.5C15.4949 19.2 16.187 19.1993 16.7255 19.1553C17.2535 19.1122 17.5541 19.0319 17.7804 18.9166C18.2696 18.6673 18.6673 18.2696 18.9166 17.7804C19.0319 17.5541 19.1122 17.2535 19.1553 16.7255C19.1993 16.187 19.2 15.4949 19.2 14.5V10.7969H12.9V19.2ZM12.9 8.99689V4.8H14.5C15.4949 4.8 16.187 4.8007 16.7255 4.8447C17.2535 4.88783 17.5541 4.96807 17.7804 5.08338C18.2696 5.33265 18.6673 5.7304 18.9166 6.21963C19.0319 6.44595 19.1122 6.74652 19.1553 7.2745C19.1915 7.71718 19.1984 8.26366 19.1997 8.99689H12.9Z" fill="currentColor"/>
</svg>
