<svg xmlns="http://www.w3.org/2000/svg" width="25" height="24" viewBox="0 0 25 24" fill="currentColor">
  <path d="M13.9041 3.00155C8.81407 2.86155 4.64407 6.94155 4.64407 12.0015H2.85407C2.40407 12.0015 2.18407 12.5415 2.50407 12.8515L5.29407 15.6515C5.49407 15.8515 5.80407 15.8515 6.00407 15.6515L8.79407 12.8515C9.11407 12.5415 8.88407 12.0015 8.44407 12.0015H6.64407C6.64407 8.10154 9.82407 4.95155 13.7441 5.00155C17.4641 5.05155 20.5941 8.18154 20.6441 11.9015C20.6941 15.8115 17.5441 19.0015 13.6441 19.0015C12.0341 19.0015 10.5441 18.4515 9.36407 17.5215C8.96407 17.2115 8.40407 17.2415 8.04407 17.6015C7.62407 18.0315 7.65407 18.7315 8.12407 19.1015C9.64407 20.2915 11.5641 21.0015 13.6441 21.0015C18.6941 21.0015 22.7841 16.8315 22.6441 11.7415C22.5141 7.05154 18.5941 3.13155 13.9041 3.00155ZM13.3941 8.00155C12.9841 8.00155 12.6441 8.34155 12.6441 8.75155V12.4315C12.6441 12.7815 12.8341 13.1115 13.1341 13.2915L16.2541 15.1415C16.6141 15.3515 17.0741 15.2315 17.2841 14.8815C17.4941 14.5215 17.3741 14.0615 17.0241 13.8515L14.1441 12.1415V8.74155C14.1441 8.34155 13.8141 8.00155 13.3941 8.00155Z"/>
</svg>