<svg xmlns="http://www.w3.org/2000/svg" width="24" height="24" viewBox="0 0 24 24" fill="currentColor">
  <path d="M12 5.53491V2.53491L8 6.53491L12 10.5349V7.53491C15.31 7.53491 18 10.2249 18 13.5349C18 16.5049 15.83 18.9649 13 19.4449V21.4649C16.95 20.9749 20 17.6149 20 13.5349C20 9.11491 16.42 5.53491 12 5.53491Z" />
  <path d="M6 13.5349C6 11.8849 6.67 10.3849 7.76 9.29491L6.34 7.87491C4.9 9.32491 4 11.3249 4 13.5349C4 17.6149 7.05 20.9749 11 21.4649V19.4449C8.17 18.9649 6 16.5049 6 13.5349Z" />
</svg>