<svg width="24" height="24" viewBox="0 0 24 24" fill="currentColor" xmlns="http://www.w3.org/2000/svg">
<g clip-path="url(#clip0_2951_18864)">
<path d="M14.9745 5.76625L12.8445 3.63625C12.2245 3.01625 11.1445 3.45625 11.1445 4.34625V5.00625C7.20453 5.49625 4.14453 8.85625 4.14453 12.9363C4.14453 16.5763 6.57453 19.6463 9.91453 20.6163C10.5345 20.7963 11.1445 20.2962 11.1445 19.6562V19.6263C11.1445 19.1963 10.8745 18.8063 10.4645 18.6863C7.96453 17.9663 6.14453 15.6663 6.14453 12.9363C6.14453 9.96625 8.30453 7.50625 11.1445 7.02625V8.55625C11.1445 9.44625 12.2145 9.88625 12.8445 9.26625L14.9745 7.18625C15.3745 6.80625 15.3745 6.16625 14.9745 5.76625ZM19.8145 10.6963C19.6545 10.1463 19.4345 9.61625 19.1545 9.10625C18.8445 8.53625 18.0545 8.44625 17.5945 8.90625L17.5845 8.91625C17.2745 9.22625 17.2045 9.69625 17.4145 10.0763C17.6145 10.4463 17.7745 10.8363 17.8945 11.2363C18.0145 11.6562 18.4045 11.9363 18.8345 11.9363H18.8545C19.5045 11.9363 20.0045 11.3163 19.8145 10.6963ZM13.1445 19.6163V19.6363C13.1445 20.2863 13.7645 20.7763 14.3845 20.5963C14.9345 20.4363 15.4645 20.2163 15.9745 19.9363C16.5445 19.6263 16.6345 18.8363 16.1745 18.3763L16.1545 18.3563C15.8445 18.0463 15.3745 17.9763 14.9945 18.1863C14.6245 18.3963 14.2345 18.5563 13.8345 18.6763C13.4245 18.7963 13.1445 19.1863 13.1445 19.6163ZM17.5845 16.9663C18.0445 17.4263 18.8345 17.3363 19.1445 16.7663C19.4245 16.2563 19.6445 15.7263 19.8145 15.1763C19.9945 14.5563 19.5045 13.9363 18.8545 13.9363H18.8345C18.3945 13.9363 18.0145 14.2163 17.8945 14.6363C17.7745 15.0363 17.6145 15.4263 17.4145 15.8063C17.2045 16.1863 17.2845 16.6663 17.5845 16.9663Z" />
</g>
<defs>
<clipPath id="clip0_2951_18864">
<rect width="24" height="24" rx="12"/>
</clipPath>
</defs>
</svg>
