<svg width="24" height="24" viewBox="0 0 24 24" fill="currentColor" xmlns="http://www.w3.org/2000/svg">
<g clip-path="url(#clip0_2951_18849)">
<path d="M6.41531 8.91849C5.95531 8.45849 5.16531 8.53849 4.85531 9.10849C4.57531 9.61849 4.35531 10.1385 4.18531 10.6885C3.99531 11.3185 4.49531 11.9385 5.14531 11.9385H5.15531C5.58531 11.9385 5.97531 11.6585 6.09531 11.2385C6.21531 10.8385 6.37531 10.4485 6.57531 10.0685C6.79531 9.69849 6.72531 9.22849 6.41531 8.91849ZM5.16531 13.9385H5.14531C4.49531 13.9385 3.99531 14.5585 4.18531 15.1885C4.34531 15.7285 4.56531 16.2585 4.84531 16.7685C5.15531 17.3385 5.95531 17.4285 6.41531 16.9685C6.71531 16.6585 6.79531 16.1985 6.58531 15.8185C6.38531 15.4485 6.22531 15.0585 6.10531 14.6585C5.98531 14.2185 5.59531 13.9385 5.16531 13.9385ZM8.01531 19.9585C8.52531 20.2385 9.05531 20.4585 9.60531 20.6185C10.2253 20.7985 10.8453 20.2985 10.8453 19.6585V19.6285C10.8453 19.1985 10.5653 18.8085 10.1453 18.6885C9.74531 18.5685 9.36531 18.4085 8.99531 18.2085C8.61531 17.9985 8.13531 18.0685 7.83531 18.3785L7.80531 18.4085C7.35531 18.8585 7.44531 19.6485 8.01531 19.9585ZM12.8553 5.00849V4.34849C12.8553 3.45849 11.7753 3.00849 11.1453 3.63849L9.02531 5.76849C8.62531 6.16849 8.62531 6.80849 9.02531 7.19849L11.1553 9.27849C11.7853 9.89849 12.8553 9.44849 12.8553 8.55849V7.02849C15.6953 7.50849 17.8553 9.96849 17.8553 12.9385C17.8553 15.6685 16.0353 17.9585 13.5353 18.6885C13.1253 18.8085 12.8553 19.1985 12.8553 19.6285V19.6485C12.8553 20.2985 13.4653 20.7885 14.0853 20.6085C17.4253 19.6485 19.8553 16.5785 19.8553 12.9385C19.8553 8.85849 16.8053 5.49849 12.8553 5.00849Z"/>
</g>
<defs>
<clipPath id="clip0_2951_18849">
<rect width="24" height="24" rx="12" />
</clipPath>
</defs>
</svg>
