<svg width="24" height="24" viewBox="0 0 24 24" fill="none" xmlns="http://www.w3.org/2000/svg">
  <path fill-rule="evenodd" clip-rule="evenodd" d="M3.43597 5.18404C3 6.03969 3 7.15979 3 9.4V14.6C3 16.8402 3 17.9603 3.43597 18.816C3.81947 19.5686 4.43139 20.1805 5.18404 20.564C6.03969 21 7.15979 21 9.4 21H14.6C16.8402 21 17.9603 21 18.816 20.564C19.5686 20.1805 20.1805 19.5686 20.564 18.816C21 17.9603 21 16.8402 21 14.6V10.151C21 9.1726 21 8.68342 20.8895 8.22307C20.7915 7.81493 20.6299 7.42475 20.4106 7.06686C20.1632 6.6632 19.8173 6.3173 19.1255 5.6255L18.3745 4.87452C17.6827 4.18271 17.3368 3.83681 16.9331 3.58944C16.5753 3.37012 16.1851 3.20851 15.7769 3.11052C15.3166 3 14.8274 3 13.849 3H9.4C7.15979 3 6.03969 3 5.18404 3.43597C4.43139 3.81947 3.81947 4.43139 3.43597 5.18404ZM5 9.4V14.6C5 15.7531 5.00156 16.4977 5.04785 17.0643C5.09225 17.6077 5.1676 17.8091 5.21799 17.908C5.40973 18.2843 5.71569 18.5903 6.09202 18.782C6.19091 18.8324 6.39235 18.9078 6.93567 18.9521C6.95686 18.9539 6.9783 18.9555 7 18.9572V15C7 13.3431 8.34315 12 10 12H14C15.6569 12 17 13.3431 17 15V18.9572C17.0217 18.9555 17.0431 18.9539 17.0643 18.9521C17.6077 18.9078 17.8091 18.8324 17.908 18.782C18.2843 18.5903 18.5903 18.2843 18.782 17.908C18.8324 17.8091 18.9078 17.6077 18.9521 17.0643C18.9984 16.4977 19 15.7531 19 14.6V10.151C19 9.07741 18.9871 8.8666 18.9447 8.68996C18.8957 8.48589 18.8149 8.2908 18.7053 8.11186C18.6104 7.95697 18.4704 7.79882 17.7113 7.0397L16.9603 6.28873C16.2012 5.52961 16.043 5.38963 15.8881 5.29472C15.7092 5.18506 15.5141 5.10425 15.31 5.05526C15.2345 5.03713 15.1528 5.0244 15 5.01577V7C15 8.10457 14.1046 9 13 9H9C7.89543 9 7 8.10457 7 7V5.04285L6.93567 5.04785C6.39235 5.09225 6.19091 5.1676 6.09202 5.21799C5.71569 5.40973 5.40973 5.71569 5.21799 6.09202C5.1676 6.19091 5.09225 6.39235 5.04785 6.93567C5.00156 7.50235 5 8.24689 5 9.4ZM15 18.9999V15C15 14.4477 14.5523 14 14 14H10C9.44771 14 9 14.4477 9 15V18.9999C9.12765 19 9.26085 19 9.4 19H14.6C14.7391 19 14.8723 19 15 18.9999ZM13 5V7H9V5.00014L13 5Z" fill="currentColor"/>
</svg>
