<svg width="148" height="148" viewBox="0 0 148 148" fill="none" xmlns="http://www.w3.org/2000/svg">
  <ellipse opacity="0.1" cx="74.0005" cy="143.164" rx="73.5786" ry="4.41472" fill="currentColor"/>
  <path fill-rule="evenodd" clip-rule="evenodd" d="M105.825 24.4994C107.093 22.7738 109.52 22.4026 111.245 23.6702C112.971 24.9379 113.342 27.3645 112.074 29.0901L107.352 35.5177C106.085 37.2433 103.658 37.6145 101.932 36.3468C100.207 35.0792 99.8357 32.6526 101.103 30.927L105.825 24.4994ZM109.503 26.0421C109.087 25.7368 108.503 25.8262 108.197 26.2418L103.475 32.6695C103.17 33.0851 103.259 33.6696 103.675 33.9749C104.091 34.2803 104.675 34.1909 104.98 33.7752L109.702 27.3476C110.008 26.932 109.918 26.3475 109.503 26.0421ZM35.9101 62.584C35.9101 43.7353 51.19 28.4554 70.0387 28.4554C88.8874 28.4554 104.167 43.7353 104.167 62.584C104.167 81.4326 88.8874 96.7125 70.0387 96.7125C51.19 96.7125 35.9101 81.4326 35.9101 62.584ZM70.0387 25.5123C49.5645 25.5123 32.967 42.1098 32.967 62.584C32.967 83.0581 49.5645 99.6556 70.0387 99.6556C76.7693 99.6556 83.081 97.862 88.5218 94.7266L93.3336 99.5383C93.1961 101.583 93.9089 103.675 95.472 105.238L110.32 120.085C113.193 122.959 117.852 122.959 120.725 120.085L123.927 116.884C126.8 114.011 126.8 109.352 123.927 106.478L109.079 91.6307C107.516 90.0673 105.424 89.3545 103.378 89.4925L99.2711 85.3853C104.183 79.0966 107.11 71.1821 107.11 62.584C107.11 42.1098 90.5128 25.5123 70.0387 25.5123ZM100.188 90.4646L97.3623 87.6388C95.4803 89.6901 93.3703 91.5289 91.0725 93.115L94.3054 96.3479C94.6194 95.8062 95.0083 95.2959 95.472 94.8322L98.6735 91.6308C99.1369 91.1673 99.6468 90.7786 100.188 90.4646ZM87.0534 58.1284C87.7803 57.765 88.075 56.8811 87.7115 56.1541C87.3481 55.4272 86.4641 55.1326 85.7372 55.496L74.1912 61.269C73.6927 61.5183 73.3777 62.0278 73.3777 62.5852C73.3777 63.1426 73.6927 63.6522 74.1912 63.9014L85.7372 69.6744C86.4641 70.0379 87.3481 69.7433 87.7115 69.0163C88.075 68.2894 87.7803 67.4055 87.0534 67.042L78.1398 62.5852L87.0534 58.1284ZM52.3644 56.1541C52.0009 56.8811 52.2956 57.765 53.0225 58.1284L61.9361 62.5852L53.0225 67.042C52.2956 67.4055 52.0009 68.2894 52.3644 69.0163C52.7279 69.7433 53.6118 70.0379 54.3387 69.6744L65.8847 63.9014C66.3833 63.6522 66.6982 63.1426 66.6982 62.5852C66.6982 62.0278 66.3833 61.5183 65.8847 61.269L54.3387 55.496C53.6118 55.1326 52.7279 55.4272 52.3644 56.1541ZM45.5314 62.5836C45.5314 49.0488 56.5035 38.0767 70.0383 38.0767C83.5731 38.0767 94.5452 49.0488 94.5452 62.5836C94.5452 76.1183 83.5731 87.0905 70.0383 87.0905C56.5035 87.0905 45.5314 76.1183 45.5314 62.5836ZM70.0383 35.1335C54.8781 35.1335 42.5882 47.4233 42.5882 62.5836C42.5882 77.7438 54.8781 90.0336 70.0383 90.0336C85.1985 90.0336 97.4883 77.7438 97.4883 62.5836C97.4883 47.4233 85.1985 35.1335 70.0383 35.1335ZM122.168 38.7523C121.517 36.7124 119.336 35.5865 117.296 36.2374L109.698 38.662C107.658 39.3129 106.532 41.4942 107.183 43.5341C107.834 45.5739 110.015 46.6999 112.055 46.049L119.653 43.6244C121.693 42.9735 122.819 40.7922 122.168 38.7523ZM118.191 39.0412C118.682 38.8845 119.208 39.1557 119.364 39.647C119.521 40.1383 119.25 40.6637 118.759 40.8205L111.16 43.2451C110.669 43.4019 110.144 43.1307 109.987 42.6393C109.83 42.148 110.101 41.6226 110.593 41.4658L118.191 39.0412ZM22.9291 84.4847C20.8734 85.0837 19.6925 87.2358 20.2916 89.2915C20.8906 91.3472 23.0427 92.5281 25.0984 91.9291L32.7556 89.6977C34.8113 89.0987 35.9921 86.9466 35.3931 84.8909C34.7941 82.8352 32.642 81.6544 30.5863 82.2534L22.9291 84.4847ZM23.1172 88.4681C22.9729 87.973 23.2573 87.4546 23.7525 87.3103L31.4097 85.079C31.9048 84.9347 32.4232 85.2192 32.5675 85.7143C32.7118 86.2095 32.4273 86.7278 31.9322 86.8721L24.275 89.1034C23.7798 89.2477 23.2615 88.9633 23.1172 88.4681ZM30.7137 104.725C29.0207 103.414 28.7111 100.979 30.0221 99.2863L34.9054 92.9803C36.2164 91.2874 38.6515 90.9778 40.3445 92.2888C42.0374 93.5997 42.347 96.0349 41.036 97.7278L36.1528 104.034C34.8418 105.727 32.4066 106.036 30.7137 104.725ZM32.3491 101.088C32.0333 101.496 32.1079 102.083 32.5157 102.398C32.9234 102.714 33.51 102.64 33.8258 102.232L38.709 95.9258C39.0248 95.5181 38.9502 94.9315 38.5425 94.6157C38.1347 94.3 37.5481 94.3745 37.2324 94.7823L32.3491 101.088Z" fill="currentColor"/>
</svg>
