<svg xmlns="http://www.w3.org/2000/svg" width="20" height="20" viewBox="0 0 20 20" fill="currentColor">
  <path d="M17.84 9.51061L10.4817 2.15228C10.1734 1.84395 9.74837 1.66895 9.30671 1.66895H3.33171C2.41504 1.66895 1.66504 2.41895 1.66504 3.33561V9.31061C1.66504 9.75228 1.84004 10.1773 2.15671 10.4856L9.51504 17.8439C10.165 18.4939 11.2234 18.4939 11.8734 17.8439L17.8484 11.8689C18.4984 11.2189 18.4984 10.1689 17.84 9.51061ZM10.69 16.6689L3.33171 9.31061V3.33561H9.30671L16.665 10.6939L10.69 16.6689Z"/>
  <path d="M5.41504 6.66895C6.10539 6.66895 6.66504 6.1093 6.66504 5.41895C6.66504 4.72859 6.10539 4.16895 5.41504 4.16895C4.72468 4.16895 4.16504 4.72859 4.16504 5.41895C4.16504 6.1093 4.72468 6.66895 5.41504 6.66895Z"/>
</svg>