<svg width="24" height="24" viewBox="0 0 24 24" fill="none" xmlns="http://www.w3.org/2000/svg">
<path d="M22 9.50664H17.21L12.82 2.93664C12.42 2.34664 11.55 2.34664 11.16 2.93664L6.77 9.50664H2C1.45 9.50664 1 9.95664 1 10.5066C1 10.5966 1.01 10.6866 1.04 10.7766L3.58 20.0466C3.81 20.8866 4.58 21.5066 5.5 21.5066H18.5C19.42 21.5066 20.19 20.8866 20.43 20.0466L22.97 10.7766L23 10.5066C23 9.95664 22.55 9.50664 22 9.50664ZM11.99 5.29664L14.8 9.50664H9.18L11.99 5.29664ZM12 17.5066C10.9 17.5066 10 16.6066 10 15.5066C10 14.4066 10.9 13.5066 12 13.5066C13.1 13.5066 14 14.4066 14 15.5066C14 16.6066 13.1 17.5066 12 17.5066Z"  fill="currentColor"/>
</svg>
