<svg xmlns="http://www.w3.org/2000/svg" width="14" height="9" viewBox="0 0 14 9" fill="currentColor">
  <path d="M0.75 9H3.75C4.1625 9 4.5 8.6625 4.5 8.25C4.5 7.8375 4.1625 7.5 3.75 7.5H0.75C0.3375 7.5 0 7.8375 0 8.25C0 8.6625 0.3375 9 0.75 9ZM0 0.75C0 1.1625 0.3375 1.5 0.75 1.5H12.75C13.1625 1.5 13.5 1.1625 13.5 0.75C13.5 0.3375 13.1625 0 12.75 0H0.75C0.3375 0 0 0.3375 0 0.75ZM0.75 5.25H8.25C8.6625 5.25 9 4.9125 9 4.5C9 4.0875 8.6625 3.75 8.25 3.75H0.75C0.3375 3.75 0 4.0875 0 4.5C0 4.9125 0.3375 5.25 0.75 5.25Z"/>
</svg>
