<svg width="24" height="24" viewBox="0 0 24 24" fill="none" xmlns="http://www.w3.org/2000/svg">
  <path fill-rule="evenodd" clip-rule="evenodd" d="M7.60001 10.8996L7.63334 10.8996C8.02485 10.8996 8.37134 10.8996 8.65849 10.8762C8.96428 10.8512 9.28113 10.7952 9.58959 10.638C10.0412 10.4079 10.4083 10.0408 10.6384 9.58919C10.7956 9.28074 10.8516 8.96388 10.8766 8.6581C10.9 8.37095 10.9 8.02447 10.9 7.63298V7.63297V7.63296V7.63294L10.9 7.59961V6.39961L10.9 6.36628C10.9 5.97477 10.9 5.62828 10.8766 5.34113C10.8516 5.03534 10.7956 4.71849 10.6384 4.41004C10.4083 3.95845 10.0412 3.59129 9.58959 3.3612C9.28113 3.20403 8.96428 3.14802 8.6585 3.12304C8.37136 3.09958 8.02489 3.09959 7.63341 3.09961H7.63335L7.60001 3.09961L6.40001 3.09961L6.36667 3.09961H6.36661C5.97513 3.09959 5.62866 3.09958 5.34152 3.12304C5.03574 3.14802 4.71889 3.20403 4.41043 3.3612C3.95884 3.59129 3.59169 3.95845 3.36159 4.41003C3.20443 4.71849 3.14842 5.03534 3.12343 5.34113C3.09997 5.62826 3.09999 5.97473 3.10001 6.36621V6.36628L3.10001 6.39961L3.10001 7.59961L3.10001 7.63295V7.63301C3.09999 8.02449 3.09997 8.37096 3.12343 8.6581C3.14842 8.96388 3.20443 9.28073 3.36159 9.58919C3.59169 10.0408 3.95884 10.4079 4.41043 10.638C4.71889 10.7952 5.03574 10.8512 5.34152 10.8762C5.62867 10.8996 5.97515 10.8996 6.36664 10.8996H6.36665H6.36666H6.36667L6.40001 10.8996H7.60001ZM8.7724 9.03422C8.75999 9.04054 8.70639 9.06628 8.51192 9.08217C8.30694 9.09891 8.0349 9.09961 7.60001 9.09961L6.40001 9.09961C5.96512 9.09961 5.69308 9.09891 5.4881 9.08217C5.29363 9.06628 5.24003 9.04054 5.22761 9.03422C5.11472 8.97669 5.02293 8.8849 4.96541 8.77201C4.95908 8.75959 4.93334 8.70599 4.91746 8.51152C4.90071 8.30654 4.90001 8.0345 4.90001 7.59961L4.90001 6.39961C4.90001 5.96472 4.90071 5.69268 4.91746 5.4877C4.93335 5.29323 4.95908 5.23963 4.96541 5.22722C5.02293 5.11432 5.11472 5.02253 5.22761 4.96501C5.24003 4.95868 5.29363 4.93295 5.4881 4.91706C5.69308 4.90031 5.96512 4.89961 6.40001 4.89961L7.60001 4.89961C8.0349 4.89961 8.30694 4.90031 8.51192 4.91706C8.70639 4.93295 8.75999 4.95868 8.7724 4.96501C8.8853 5.02253 8.97709 5.11432 9.03461 5.22722C9.04094 5.23963 9.06667 5.29323 9.08256 5.4877C9.09931 5.69268 9.10001 5.96472 9.10001 6.39961L9.10001 7.59961C9.10001 8.0345 9.09931 8.30654 9.08256 8.51152C9.06667 8.70599 9.04094 8.75959 9.03461 8.77201C8.97709 8.8849 8.8853 8.97669 8.7724 9.03422ZM7.60001 20.8996L7.63334 20.8996H7.63344C8.02491 20.8996 8.37136 20.8996 8.65849 20.8762C8.96428 20.8512 9.28113 20.7952 9.58959 20.638C10.0412 20.4079 10.4083 20.0408 10.6384 19.5892C10.7956 19.2807 10.8516 18.9639 10.8766 18.6581C10.9 18.371 10.9 18.0245 10.9 17.633V17.633V17.633V17.6329L10.9 17.5996V16.3996L10.9 16.3663C10.9 15.9748 10.9 15.6283 10.8766 15.3411C10.8516 15.0353 10.7956 14.7185 10.6384 14.41C10.4083 13.9584 10.0412 13.5913 9.58959 13.3612C9.28113 13.204 8.96428 13.148 8.6585 13.123C8.37136 13.0996 8.02489 13.0996 7.63342 13.0996H7.63341H7.6334H7.63335L7.60001 13.0996H6.40001L6.36667 13.0996H6.36662H6.36661H6.3666C5.97512 13.0996 5.62866 13.0996 5.34152 13.123C5.03574 13.148 4.71889 13.204 4.41043 13.3612C3.95884 13.5913 3.59169 13.9584 3.36159 14.41C3.20443 14.7185 3.14842 15.0353 3.12343 15.3411C3.09997 15.6283 3.09999 15.9747 3.10001 16.3662V16.3663L3.10001 16.3996L3.10001 17.5996L3.10001 17.6329V17.633C3.09999 18.0245 3.09997 18.371 3.12343 18.6581C3.14842 18.9639 3.20443 19.2807 3.36159 19.5892C3.59169 20.0408 3.95884 20.4079 4.41043 20.638C4.71889 20.7952 5.03574 20.8512 5.34152 20.8762C5.62865 20.8996 5.97511 20.8996 6.36657 20.8996H6.36667L6.40001 20.8996H7.60001ZM8.7724 19.0342C8.75999 19.0405 8.70639 19.0663 8.51192 19.0822C8.30694 19.0989 8.0349 19.0996 7.60001 19.0996H6.40001C5.96512 19.0996 5.69308 19.0989 5.4881 19.0822C5.29363 19.0663 5.24003 19.0405 5.22761 19.0342C5.11472 18.9767 5.02293 18.8849 4.96541 18.772C4.95908 18.7596 4.93334 18.706 4.91746 18.5115C4.90071 18.3065 4.90001 18.0345 4.90001 17.5996L4.90001 16.3996C4.90001 15.9647 4.90071 15.6927 4.91746 15.4877C4.93335 15.2932 4.95908 15.2396 4.96541 15.2272C5.02293 15.1143 5.11472 15.0225 5.22761 14.965C5.24003 14.9587 5.29363 14.9329 5.4881 14.9171C5.69308 14.9003 5.96512 14.8996 6.40001 14.8996H7.60001C8.0349 14.8996 8.30694 14.9003 8.51192 14.9171C8.70639 14.9329 8.75999 14.9587 8.7724 14.965C8.8853 15.0225 8.97709 15.1143 9.03461 15.2272C9.04094 15.2396 9.06667 15.2932 9.08256 15.4877C9.09931 15.6927 9.10001 15.9647 9.10001 16.3996L9.10001 17.5996C9.10001 18.0345 9.09931 18.3065 9.08256 18.5115C9.06667 18.706 9.04094 18.7596 9.03461 18.772C8.97709 18.8849 8.8853 18.9767 8.7724 19.0342ZM17.6333 10.8996L17.6 10.8996H16.4L16.3667 10.8996H16.3667H16.3666C15.9752 10.8996 15.6287 10.8996 15.3415 10.8762C15.0357 10.8512 14.7189 10.7952 14.4104 10.638C13.9588 10.4079 13.5917 10.0408 13.3616 9.58919C13.2044 9.28073 13.1484 8.96388 13.1234 8.6581C13.1 8.37094 13.1 8.02445 13.1 7.63295L13.1 7.59961V6.39961L13.1 6.36628C13.1 5.97477 13.1 5.62828 13.1234 5.34113C13.1484 5.03534 13.2044 4.71849 13.3616 4.41003C13.5917 3.95845 13.9588 3.59129 14.4104 3.3612C14.7189 3.20403 15.0357 3.14802 15.3415 3.12304C15.6287 3.09958 15.9751 3.09959 16.3666 3.09961H16.3667L16.4 3.09961L17.6 3.09961L17.6333 3.09961H17.6334C18.0249 3.09959 18.3714 3.09958 18.6585 3.12304C18.9643 3.14802 19.2811 3.20403 19.5896 3.3612C20.0412 3.59129 20.4083 3.95845 20.6384 4.41004C20.7956 4.71849 20.8516 5.03534 20.8766 5.34113C20.9 5.62828 20.9 5.97477 20.9 6.36628L20.9 6.39961V7.59961L20.9 7.63294C20.9 8.02445 20.9 8.37094 20.8766 8.6581C20.8516 8.96388 20.7956 9.28074 20.6384 9.58919C20.4083 10.0408 20.0412 10.4079 19.5896 10.638C19.2811 10.7952 18.9643 10.8512 18.6585 10.8762C18.3713 10.8996 18.0248 10.8996 17.6333 10.8996ZM18.5119 9.08217C18.7064 9.06628 18.76 9.04054 18.7724 9.03422C18.8853 8.97669 18.9771 8.8849 19.0346 8.77201C19.0409 8.75959 19.0667 8.70599 19.0826 8.51152C19.0993 8.30654 19.1 8.0345 19.1 7.59961V6.39961C19.1 5.96472 19.0993 5.69268 19.0826 5.4877C19.0667 5.29323 19.0409 5.23963 19.0346 5.22722C18.9771 5.11432 18.8853 5.02253 18.7724 4.96501C18.76 4.95868 18.7064 4.93295 18.5119 4.91706C18.3069 4.90031 18.0349 4.89961 17.6 4.89961L16.4 4.89961C15.9651 4.89961 15.6931 4.90031 15.4881 4.91706C15.2936 4.93295 15.24 4.95868 15.2276 4.96501C15.1147 5.02253 15.0229 5.11432 14.9654 5.22722C14.9591 5.23963 14.9333 5.29323 14.9175 5.4877C14.9007 5.69268 14.9 5.96472 14.9 6.39961V7.59961C14.9 8.0345 14.9007 8.30654 14.9175 8.51152C14.9333 8.70599 14.9591 8.75959 14.9654 8.77201C15.0229 8.8849 15.1147 8.97669 15.2276 9.03422C15.24 9.04054 15.2936 9.06628 15.4881 9.08217C15.6931 9.09891 15.9651 9.09961 16.4 9.09961L17.6 9.09961C18.0349 9.09961 18.3069 9.09891 18.5119 9.08217ZM17.6 20.8996L17.6333 20.8996H17.6334C18.0249 20.8996 18.3714 20.8996 18.6585 20.8762C18.9643 20.8512 19.2811 20.7952 19.5896 20.638C20.0412 20.4079 20.4083 20.0408 20.6384 19.5892C20.7956 19.2807 20.8516 18.9639 20.8766 18.6581C20.9 18.3709 20.9 18.0245 20.9 17.6329L20.9 17.5996V16.3996L20.9 16.3663C20.9 15.9748 20.9 15.6283 20.8766 15.3411C20.8516 15.0353 20.7956 14.7185 20.6384 14.41C20.4083 13.9584 20.0412 13.5913 19.5896 13.3612C19.2811 13.204 18.9643 13.148 18.6585 13.123C18.3714 13.0996 18.0249 13.0996 17.6334 13.0996H17.6333L17.6 13.0996H16.4L16.3667 13.0996H16.3666C15.9751 13.0996 15.6287 13.0996 15.3415 13.123C15.0357 13.148 14.7189 13.204 14.4104 13.3612C13.9588 13.5913 13.5917 13.9584 13.3616 14.41C13.2044 14.7185 13.1484 15.0353 13.1234 15.3411C13.1 15.6283 13.1 15.9748 13.1 16.3663L13.1 16.3996V17.5996L13.1 17.6329C13.1 18.0245 13.1 18.3709 13.1234 18.6581C13.1484 18.9639 13.2044 19.2807 13.3616 19.5892C13.5917 20.0408 13.9588 20.4079 14.4104 20.638C14.7189 20.7952 15.0357 20.8512 15.3415 20.8762C15.6287 20.8996 15.9751 20.8996 16.3666 20.8996H16.3667L16.4 20.8996H17.6ZM18.7724 19.0342C18.76 19.0405 18.7064 19.0663 18.5119 19.0822C18.3069 19.0989 18.0349 19.0996 17.6 19.0996H16.4C15.9651 19.0996 15.6931 19.0989 15.4881 19.0822C15.2936 19.0663 15.24 19.0405 15.2276 19.0342C15.1147 18.9767 15.0229 18.8849 14.9654 18.772C14.9591 18.7596 14.9333 18.706 14.9175 18.5115C14.9007 18.3065 14.9 18.0345 14.9 17.5996V16.3996C14.9 15.9647 14.9007 15.6927 14.9175 15.4877C14.9333 15.2932 14.9591 15.2396 14.9654 15.2272C15.0229 15.1143 15.1147 15.0225 15.2276 14.965C15.24 14.9587 15.2936 14.9329 15.4881 14.9171C15.6931 14.9003 15.9651 14.8996 16.4 14.8996H17.6C18.0349 14.8996 18.3069 14.9003 18.5119 14.9171C18.7064 14.9329 18.76 14.9587 18.7724 14.965C18.8853 15.0225 18.9771 15.1143 19.0346 15.2272C19.0409 15.2396 19.0667 15.2932 19.0826 15.4877C19.0993 15.6927 19.1 15.9647 19.1 16.3996V17.5996C19.1 18.0345 19.0993 18.3065 19.0826 18.5115C19.0667 18.706 19.0409 18.7596 19.0346 18.772C18.9771 18.8849 18.8853 18.9767 18.7724 19.0342Z" fill="currentColor"/>
</svg>
