<svg xmlns="http://www.w3.org/2000/svg" width="24" height="24" viewBox="0 0 24 24" fill="currentColor">
  <path d="M21.63 17.37L22.77 16.37L21.77 14.64L20.32 15.13C20 14.86 19.64 14.65 19.24 14.5L18.94 13H16.94L16.64 14.49C16.24 14.64 15.88 14.85 15.56 15.12L14.11 14.63L13.11 16.36L14.25 17.36C14.17 17.86 14.17 18.12 14.25 18.62L13.11 19.62L14.11 21.35L15.56 20.86C15.88 21.13 16.24 21.34 16.64 21.49L16.94 23H18.94L19.24 21.51C19.64 21.36 20 21.15 20.32 20.88L21.77 21.37L22.77 19.64L21.63 18.64C21.71 18.13 21.71 17.87 21.63 17.37ZM17.94 20C16.84 20 15.94 19.1 15.94 18C15.94 16.9 16.84 16 17.94 16C19.04 16 19.94 16.9 19.94 18C19.94 19.1 19.04 20 17.94 20ZM9.94 6V11.41L12.3 13.77L13.34 11.98L11.94 10.59V6H9.94ZM9.8 17.91C6.81 17.42 4.45 15.01 4.02 12H2C2.5 16.5 6.31 20 10.94 20C10.96 20 10.99 20 11.01 20L9.8 17.91Z"/>
  <path d="M2 11C2 6.03 6.03 2 11 2C13.83 2 16.35 3.32 18 5.36V3H20V9H14V7H16.74C15.47 5.19 13.37 4 11 4C7.14 4 4 7.14 4 11H2Z"/>
</svg>