<svg width="16" height="16" viewBox="0 0 16 16" fill="none" xmlns="http://www.w3.org/2000/svg">
  <path d="M8 1.14258C8.31559 1.14258 8.57143 1.39842 8.57143 1.71401L8.57206 2.31371C11.2714 2.58202 13.418 4.7288 13.6861 7.42823L14.2857 7.42829C14.6013 7.42829 14.8571 7.68413 14.8571 7.99972C14.8571 8.31531 14.6013 8.57115 14.2857 8.57115L13.686 8.57178C13.4177 11.2709 11.2712 13.4174 8.57206 13.6857L8.57143 14.2854C8.57143 14.601 8.31559 14.8569 8 14.8569C7.68441 14.8569 7.42857 14.601 7.42857 14.2854L7.42851 13.6858C4.72908 13.4177 2.5823 11.2711 2.31399 8.57178L1.71429 8.57115C1.39869 8.57115 1.14286 8.31531 1.14286 7.99972C1.14286 7.68413 1.39869 7.42829 1.71429 7.42829L2.31393 7.42823C2.582 4.72861 4.72889 2.58172 7.42851 2.31366L7.42857 1.71401C7.42857 1.39842 7.68441 1.14258 8 1.14258ZM8.57197 3.46373L8.57143 3.99972C8.57143 4.31531 8.31559 4.57115 8 4.57115C7.68441 4.57115 7.42857 4.31531 7.42857 3.99972L7.4286 3.46366C5.36074 3.7215 3.72178 5.36046 3.46394 7.42832L4 7.42829C4.31559 7.42829 4.57143 7.68413 4.57143 7.99972C4.57143 8.31531 4.31559 8.57115 4 8.57115L3.46401 8.57169C3.72208 10.6393 5.36093 12.278 7.4286 12.5358L7.42857 11.9997C7.42857 11.6841 7.68441 11.4283 8 11.4283C8.31559 11.4283 8.57143 11.6841 8.57143 11.9997L8.57197 12.5357C10.6394 12.2777 12.2779 10.6391 12.536 8.57169L12 8.57115C11.6844 8.57115 11.4286 8.31531 11.4286 7.99972C11.4286 7.68413 11.6844 7.42829 12 7.42829L12.5361 7.42832C12.2782 5.36065 10.6396 3.72181 8.57197 3.46373ZM8 6.85686C8.63118 6.85686 9.14286 7.36854 9.14286 7.99972C9.14286 8.6309 8.63118 9.14258 8 9.14258C7.36882 9.14258 6.85714 8.6309 6.85714 7.99972C6.85714 7.36854 7.36882 6.85686 8 6.85686Z" fill="currentColor"/>
</svg>
