<svg width="24" height="24" viewBox="0 0 24 24" fill="none" xmlns="http://www.w3.org/2000/svg">
  <path d="M16.75 8.00136H8.25V7.12645C8.24974 6.15652 8.56265 5.21401 9.13954 4.44709C9.71643 3.68017 10.5246 3.13234 11.4369 2.88972C12.3493 2.64711 13.3141 2.72348 14.1797 3.10681C15.0453 3.49015 15.7626 4.15872 16.2188 5.0074C16.2729 5.10788 16.3458 5.19639 16.4333 5.26787C16.5207 5.33935 16.6209 5.39241 16.7283 5.42401C16.8356 5.45561 16.948 5.46514 17.0589 5.45206C17.1698 5.43897 17.2771 5.40353 17.3748 5.34775C17.4724 5.29197 17.5583 5.21694 17.6278 5.12695C17.6972 5.03697 17.7488 4.93378 17.7795 4.82329C17.8102 4.7128 17.8195 4.59717 17.8067 4.48299C17.794 4.36882 17.7596 4.25834 17.7054 4.15786C17.0664 2.97 16.0621 2.03437 14.8503 1.49805C13.6384 0.961718 12.2878 0.855103 11.0107 1.19496C9.73357 1.53482 8.60238 2.30187 7.79493 3.37556C6.98748 4.44924 6.54956 5.76867 6.55 7.12645V8.37233C5.79296 8.71241 5.1486 9.2722 4.69572 9.98323C4.24285 10.6943 4.00109 11.5257 4 12.3759V17.6254C4.00135 18.7852 4.44955 19.8971 5.24629 20.7172C6.04302 21.5373 7.12324 21.9986 8.25 22H16.75C17.8768 21.9986 18.957 21.5373 19.7537 20.7172C20.5505 19.8971 20.9987 18.7852 21 17.6254V12.3759C20.9987 11.2162 20.5505 10.1043 19.7537 9.28418C18.957 8.46409 17.8768 8.00275 16.75 8.00136ZM19.3 17.6254C19.3 18.3216 19.0313 18.9892 18.5531 19.4814C18.0749 19.9736 17.4263 20.2502 16.75 20.2502H8.25C7.5737 20.2502 6.9251 19.9736 6.44688 19.4814C5.96866 18.9892 5.7 18.3216 5.7 17.6254V12.3759C5.7 11.6798 5.96866 11.0122 6.44688 10.52C6.9251 10.0277 7.5737 9.75119 8.25 9.75119H16.75C17.4263 9.75119 18.0749 10.0277 18.5531 10.52C19.0313 11.0122 19.3 11.6798 19.3 12.3759V17.6254Z" fill="currentColor"/>
  <path d="M12.4531 13C12.0677 13 11.6981 13.1049 11.4256 13.2917C11.1531 13.4786 11 13.7319 11 13.9961V15.9883C11 16.2525 11.1531 16.5058 11.4256 16.6926C11.6981 16.8794 12.0677 16.9844 12.4531 16.9844C12.8385 16.9844 13.2081 16.8794 13.4806 16.6926C13.7532 16.5058 13.9062 16.2525 13.9062 15.9883V13.9961C13.9062 13.7319 13.7532 13.4786 13.4806 13.2917C13.2081 13.1049 12.8385 13 12.4531 13Z" fill="currentColor"/>
</svg>
