<svg width="24" height="25" viewBox="0 0 24 25" fill="currentColor" xmlns="http://www.w3.org/2000/svg">
  <path d="M13.17 2.5H6.01C4.91 2.5 4.01 3.39 4.01 4.5L4 20.5C4 21.6 4.9 22.5 6 22.5H18C19.1 22.5 20 21.6 20 20.5V9.33C20 8.8 19.79 8.29 19.41 7.92L14.58 3.09C14.21 2.71 13.7 2.5 13.17 2.5ZM13 8.5V4L18.5 9.5H14C13.45 9.5 13 9.05 13 8.5ZM14 14.5L15.27 13.83C15.6 13.65 16 13.89 16 14.27V16.73C16 17.11 15.6 17.35 15.27 17.17L14 16.5V17.5C14 18.05 13.55 18.5 13 18.5H9C8.45 18.5 8 18.05 8 17.5V13.5C8 12.95 8.45 12.5 9 12.5H13C13.55 12.5 14 12.95 14 13.5V14.5Z" />
</svg>
