<svg width="24" height="24" viewBox="0 0 24 24" fill="currentColor" xmlns="http://www.w3.org/2000/svg">
    <path d="M17.09 4.77574C16.39 3.74574 15.59 2.78574 14.69 1.92574C14.34 1.58574 13.75 1.90574 13.85 2.38574C14.04 3.32574 14.24 4.56574 14.24 5.67574C14.24 7.73574 12.89 9.40574 10.83 9.40574C9.29 9.40574 8.03 8.47574 7.48 7.14574C7.38 6.94574 7.34 6.82574 7.28 6.60574C7.17 6.18574 6.62 6.05574 6.38 6.42574C6.2 6.69574 6.03 6.96574 5.87 7.25574C4.68 9.29574 4 11.6757 4 14.2157C4 18.6357 7.58 22.2157 12 22.2157C16.42 22.2157 20 18.6357 20 14.2157C20 10.7257 18.92 7.48574 17.09 4.77574ZM11.71 19.2157C9.93 19.2157 8.49 17.8157 8.49 16.0757C8.49 14.4557 9.54 13.3157 11.3 12.9557C12.77 12.6557 14.28 12.0257 15.33 11.0357C15.61 10.7757 16.07 10.8957 16.15 11.2657C16.38 12.2857 16.5 13.3457 16.5 14.4157C16.51 17.0657 14.36 19.2157 11.71 19.2157Z"/>
</svg>
