<svg xmlns="http://www.w3.org/2000/svg" width="24" height="24" viewBox="0 0 24 24" fill="currentColor">
  <path d="M8.25635 3.17205C9.76957 1.65882 12.194 1.61109 13.7642 3.02947L13.9136 3.17205L15.7632 5.02166C17.5908 6.84928 17.7064 9.73863 16.1128 11.7023L20.0024 15.5929C20.7835 16.374 20.7835 17.64 20.0024 18.4211L18.7749 19.6486C17.9938 20.4293 16.7277 20.4295 15.9468 19.6486L12.0562 15.759C10.0925 17.3523 7.20299 17.2368 5.37549 15.4094L3.52588 13.5597C1.96418 11.9978 1.96416 9.46461 3.52588 7.90252L3.96533 7.46306L4.03857 7.39666C4.21642 7.25082 4.44037 7.17023 4.67236 7.17009C4.93754 7.17009 5.19187 7.27559 5.37939 7.46306L8.07178 10.1545L10.5034 7.72185L7.81201 5.03045C7.62459 4.84298 7.51911 4.58849 7.51904 4.32341C7.51907 4.05839 7.62471 3.80386 7.81201 3.61638L8.25635 3.17205ZM13.4907 14.3644L17.3608 18.2345L18.5884 17.007L14.7183 13.1369L13.4907 14.3644ZM12.4985 4.58611C11.8071 3.89504 10.7361 3.81542 9.95752 4.34783L11.9175 6.30779V6.30877C12.6976 7.08953 12.6984 8.35574 11.9175 9.13689L9.48584 11.5685H9.48486C8.70394 12.3484 7.4385 12.3487 6.65771 11.5685H6.65674L4.69775 9.60955C4.17012 10.3874 4.25018 11.4551 4.93896 12.1447L6.78955 13.9953C7.96101 15.1667 9.86112 15.1665 11.0327 13.9953L14.3491 10.6789C15.5207 9.50732 15.5207 7.60729 14.3491 6.43572L12.4985 4.58611Z"/>
</svg>