<svg width="16" height="16" viewBox="0 0 16 16" fill="none" xmlns="http://www.w3.org/2000/svg">
  <path d="M9.45867 4.18164L11.818 6.54097L6.06944 12.2903C5.55393 12.8057 4.91967 13.1867 4.22244 13.3995L2.28744 13.9902C2.16992 14.0261 2.04557 13.9599 2.00969 13.8424C1.99677 13.8001 1.99677 13.7548 2.00969 13.7125L2.60036 11.7777C2.81325 11.0803 3.19426 10.446 3.70985 9.93041L9.45867 4.18164ZM12.7594 2.2958L13.7049 3.24131C14.0711 3.6074 14.0939 4.18677 13.7736 4.57955L13.7049 4.6555L12.5253 5.8343L10.1653 3.47431L11.3451 2.29577C11.7357 1.9053 12.3689 1.90532 12.7594 2.2958Z" fill="currentColor"/>
</svg>
