<svg xmlns="http://www.w3.org/2000/svg" width="24" height="24" viewBox="0 0 24 24" fill="currentColor">
  <path d="M15.9713 14.4716H15.1813L14.9013 14.2016C16.1013 12.8016 16.7213 10.8916 16.3813 8.86157C15.9113 6.08157 13.5913 3.86157 10.7913 3.52157C6.56133 3.00157 3.00133 6.56157 3.52133 10.7916C3.86133 13.5916 6.08133 15.9116 8.86133 16.3816C10.8913 16.7216 12.8013 16.1016 14.2013 14.9016L14.4713 15.1816V15.9716L18.7313 20.2216C19.1413 20.6316 19.8013 20.6316 20.2113 20.2216L20.2213 20.2116C20.6313 19.8016 20.6313 19.1416 20.2213 18.7316L15.9713 14.4716ZM9.97133 14.4716C7.48133 14.4716 5.47133 12.4616 5.47133 9.97157C5.47133 7.48157 7.48133 5.47157 9.97133 5.47157C12.4613 5.47157 14.4713 7.48157 14.4713 9.97157C14.4713 12.4616 12.4613 14.4716 9.97133 14.4716ZM7.97133 9.47157H11.9713C12.2513 9.47157 12.4713 9.69157 12.4713 9.97157C12.4713 10.2516 12.2513 10.4716 11.9713 10.4716H7.97133C7.69133 10.4716 7.47133 10.2516 7.47133 9.97157C7.47133 9.69157 7.69133 9.47157 7.97133 9.47157Z" />
</svg>